<svg width="164" height="36" viewBox="0 0 164 36" fill="none" xmlns="http://www.w3.org/2000/svg">
<circle cx="18" cy="18" r="18" fill="#E9E3FF"/>
<circle cx="18" cy="18" r="17.5" stroke="#644EFF" stroke-opacity="0.17"/>
<path d="M45.0043 24V13.8182H48.902C49.6378 13.8182 50.2493 13.9342 50.7365 14.1662C51.227 14.3949 51.5933 14.7081 51.8352 15.1058C52.0805 15.5036 52.2031 15.9543 52.2031 16.4581C52.2031 16.8724 52.1236 17.227 51.9645 17.522C51.8054 17.8137 51.5916 18.0507 51.3232 18.233C51.0547 18.4152 50.7547 18.5462 50.4233 18.6257V18.7251C50.7846 18.745 51.1309 18.8561 51.4624 19.0582C51.7971 19.2571 52.0705 19.5388 52.2827 19.9034C52.4948 20.268 52.6009 20.7088 52.6009 21.2259C52.6009 21.7528 52.4732 22.2268 52.218 22.6477C51.9628 23.0653 51.5784 23.3951 51.0646 23.6371C50.5509 23.879 49.9046 24 49.1257 24H45.0043ZM46.8487 22.4588H48.8324C49.5019 22.4588 49.9841 22.3312 50.2791 22.076C50.5774 21.8175 50.7266 21.486 50.7266 21.0817C50.7266 20.7801 50.652 20.5083 50.5028 20.2663C50.3537 20.0211 50.1416 19.8288 49.8665 19.6896C49.5914 19.5471 49.2633 19.4759 48.8821 19.4759H46.8487V22.4588ZM46.8487 18.1484H48.6733C48.9915 18.1484 49.2782 18.0904 49.5334 17.9744C49.7886 17.8551 49.9891 17.6877 50.1349 17.4723C50.2841 17.2536 50.3587 16.995 50.3587 16.6967C50.3587 16.3023 50.2195 15.9775 49.9411 15.7223C49.666 15.4671 49.2566 15.3395 48.7131 15.3395H46.8487V18.1484ZM54.1259 24V16.3636H55.8709V17.6364H55.9505C56.0897 17.1955 56.3283 16.8558 56.6664 16.6172C57.0078 16.3752 57.3972 16.2543 57.8347 16.2543C57.9341 16.2543 58.0452 16.2592 58.1678 16.2692C58.2937 16.2758 58.3981 16.2874 58.481 16.304V17.9595C58.4048 17.933 58.2838 17.9098 58.1181 17.8899C57.9557 17.8667 57.7982 17.8551 57.6458 17.8551C57.3176 17.8551 57.0227 17.9264 56.7608 18.0689C56.5023 18.2081 56.2985 18.402 56.1493 18.6506C56.0002 18.8991 55.9256 19.1858 55.9256 19.5107V24H54.1259ZM62.6932 24.1491C61.9474 24.1491 61.3011 23.9851 60.7543 23.657C60.2074 23.3288 59.7831 22.8698 59.4815 22.2798C59.1832 21.6899 59.0341 21.0005 59.0341 20.2116C59.0341 19.4228 59.1832 18.7318 59.4815 18.1385C59.7831 17.5452 60.2074 17.0845 60.7543 16.7564C61.3011 16.4283 61.9474 16.2642 62.6932 16.2642C63.4389 16.2642 64.0852 16.4283 64.6321 16.7564C65.179 17.0845 65.6016 17.5452 65.8999 18.1385C66.2015 18.7318 66.3523 19.4228 66.3523 20.2116C66.3523 21.0005 66.2015 21.6899 65.8999 22.2798C65.6016 22.8698 65.179 23.3288 64.6321 23.657C64.0852 23.9851 63.4389 24.1491 62.6932 24.1491ZM62.7031 22.7074C63.1075 22.7074 63.4455 22.5964 63.7173 22.3743C63.9891 22.1489 64.1913 21.8473 64.3239 21.4695C64.4598 21.0916 64.5277 20.6707 64.5277 20.2067C64.5277 19.7393 64.4598 19.3168 64.3239 18.9389C64.1913 18.5578 63.9891 18.2545 63.7173 18.0291C63.4455 17.8037 63.1075 17.6911 62.7031 17.6911C62.2888 17.6911 61.9441 17.8037 61.669 18.0291C61.3973 18.2545 61.1934 18.5578 61.0575 18.9389C60.925 19.3168 60.8587 19.7393 60.8587 20.2067C60.8587 20.6707 60.925 21.0916 61.0575 21.4695C61.1934 21.8473 61.3973 22.1489 61.669 22.3743C61.9441 22.5964 62.2888 22.7074 62.7031 22.7074ZM69.5204 21.6037L69.5154 19.4311H69.8038L72.5481 16.3636H74.6511L71.2754 20.1222H70.9025L69.5204 21.6037ZM67.8798 24V13.8182H69.6795V24H67.8798ZM72.6724 24L70.1866 20.5249L71.3997 19.2571L74.8251 24H72.6724ZM78.9167 24.1491C78.1511 24.1491 77.4899 23.9901 76.9331 23.6719C76.3796 23.3504 75.9537 22.8963 75.6554 22.3097C75.3571 21.7197 75.2079 21.0253 75.2079 20.2266C75.2079 19.4411 75.3571 18.7517 75.6554 18.1584C75.957 17.5618 76.3779 17.0978 76.9181 16.7663C77.4584 16.4316 78.0931 16.2642 78.8223 16.2642C79.2929 16.2642 79.737 16.3404 80.1547 16.4929C80.5756 16.642 80.9468 16.8741 81.2683 17.1889C81.5931 17.5038 81.8483 17.9048 82.0339 18.392C82.2195 18.8759 82.3123 19.4527 82.3123 20.1222V20.674H76.0531V19.4609H80.5872C80.5839 19.1162 80.5093 18.8097 80.3635 18.5412C80.2176 18.2694 80.0138 18.0556 79.752 17.8999C79.4934 17.7441 79.1918 17.6662 78.8471 17.6662C78.4792 17.6662 78.1561 17.7557 77.8777 17.9347C77.5993 18.1103 77.3822 18.3423 77.2264 18.6307C77.0739 18.9157 76.996 19.2289 76.9927 19.5703V20.6293C76.9927 21.0734 77.0739 21.4545 77.2363 21.7727C77.3987 22.0876 77.6258 22.3295 77.9174 22.4986C78.2091 22.6643 78.5505 22.7472 78.9416 22.7472C79.2034 22.7472 79.4404 22.7107 79.6525 22.6378C79.8646 22.5616 80.0486 22.4505 80.2044 22.3047C80.3601 22.1589 80.4778 21.9782 80.5574 21.7628L82.2377 21.9517C82.1317 22.3958 81.9295 22.7836 81.6312 23.1151C81.3362 23.4432 80.9584 23.6984 80.4977 23.8807C80.037 24.0597 79.51 24.1491 78.9167 24.1491ZM85.6346 19.5256V24H83.8349V16.3636H85.555V17.6612H85.6445C85.8202 17.2337 86.1003 16.8939 86.4847 16.642C86.8725 16.3902 87.3514 16.2642 87.9215 16.2642C88.4485 16.2642 88.9076 16.3769 89.2987 16.6023C89.6931 16.8277 89.998 17.1541 90.2134 17.5817C90.4322 18.0092 90.5399 18.5279 90.5366 19.1378V24H88.7369V19.4162C88.7369 18.9058 88.6043 18.5064 88.3391 18.218C88.0773 17.9297 87.7144 17.7855 87.2504 17.7855C86.9355 17.7855 86.6554 17.8551 86.4102 17.9943C86.1682 18.1302 85.9776 18.3274 85.8384 18.5859C85.7025 18.8445 85.6346 19.1577 85.6346 19.5256ZM95.9183 24V13.8182H102.441V15.3643H97.7628V18.1286H101.994V19.6747H97.7628V24H95.9183ZM106.812 24.1491C106.067 24.1491 105.42 23.9851 104.873 23.657C104.327 23.3288 103.902 22.8698 103.601 22.2798C103.302 21.6899 103.153 21.0005 103.153 20.2116C103.153 19.4228 103.302 18.7318 103.601 18.1385C103.902 17.5452 104.327 17.0845 104.873 16.7564C105.42 16.4283 106.067 16.2642 106.812 16.2642C107.558 16.2642 108.204 16.4283 108.751 16.7564C109.298 17.0845 109.721 17.5452 110.019 18.1385C110.321 18.7318 110.471 19.4228 110.471 20.2116C110.471 21.0005 110.321 21.6899 110.019 22.2798C109.721 22.8698 109.298 23.3288 108.751 23.657C108.204 23.9851 107.558 24.1491 106.812 24.1491ZM106.822 22.7074C107.227 22.7074 107.565 22.5964 107.836 22.3743C108.108 22.1489 108.31 21.8473 108.443 21.4695C108.579 21.0916 108.647 20.6707 108.647 20.2067C108.647 19.7393 108.579 19.3168 108.443 18.9389C108.31 18.5578 108.108 18.2545 107.836 18.0291C107.565 17.8037 107.227 17.6911 106.822 17.6911C106.408 17.6911 106.063 17.8037 105.788 18.0291C105.516 18.2545 105.313 18.5578 105.177 18.9389C105.044 19.3168 104.978 19.7393 104.978 20.2067C104.978 20.6707 105.044 21.0916 105.177 21.4695C105.313 21.8473 105.516 22.1489 105.788 22.3743C106.063 22.5964 106.408 22.7074 106.822 22.7074ZM115.33 24.1491C114.584 24.1491 113.938 23.9851 113.391 23.657C112.844 23.3288 112.42 22.8698 112.118 22.2798C111.82 21.6899 111.671 21.0005 111.671 20.2116C111.671 19.4228 111.82 18.7318 112.118 18.1385C112.42 17.5452 112.844 17.0845 113.391 16.7564C113.938 16.4283 114.584 16.2642 115.33 16.2642C116.076 16.2642 116.722 16.4283 117.269 16.7564C117.816 17.0845 118.238 17.5452 118.537 18.1385C118.838 18.7318 118.989 19.4228 118.989 20.2116C118.989 21.0005 118.838 21.6899 118.537 22.2798C118.238 22.8698 117.816 23.3288 117.269 23.657C116.722 23.9851 116.076 24.1491 115.33 24.1491ZM115.34 22.7074C115.744 22.7074 116.082 22.5964 116.354 22.3743C116.626 22.1489 116.828 21.8473 116.961 21.4695C117.096 21.0916 117.164 20.6707 117.164 20.2067C117.164 19.7393 117.096 19.3168 116.961 18.9389C116.828 18.5578 116.626 18.2545 116.354 18.0291C116.082 17.8037 115.744 17.6911 115.34 17.6911C114.926 17.6911 114.581 17.8037 114.306 18.0291C114.034 18.2545 113.83 18.5578 113.694 18.9389C113.562 19.3168 113.495 19.7393 113.495 20.2067C113.495 20.6707 113.562 21.0916 113.694 21.4695C113.83 21.8473 114.034 22.1489 114.306 22.3743C114.581 22.5964 114.926 22.7074 115.34 22.7074ZM124.33 16.3636V17.7557H119.94V16.3636H124.33ZM121.024 14.5341H122.823V21.7031C122.823 21.9451 122.86 22.1307 122.933 22.2599C123.009 22.3859 123.108 22.4721 123.231 22.5185C123.354 22.5649 123.49 22.5881 123.639 22.5881C123.751 22.5881 123.854 22.5798 123.947 22.5632C124.043 22.5466 124.116 22.5317 124.166 22.5185L124.469 23.9254C124.373 23.9586 124.235 23.995 124.056 24.0348C123.881 24.0746 123.665 24.0978 123.41 24.1044C122.959 24.1177 122.553 24.0497 122.192 23.9006C121.831 23.7481 121.544 23.5128 121.332 23.1946C121.123 22.8764 121.02 22.4787 121.024 22.0014V14.5341ZM125.835 26.8636V16.3636H127.605V17.6264H127.709C127.802 17.4408 127.933 17.2436 128.102 17.0348C128.271 16.8227 128.5 16.642 128.788 16.4929C129.076 16.3404 129.444 16.2642 129.892 16.2642C130.482 16.2642 131.014 16.415 131.488 16.7166C131.965 17.0149 132.343 17.4574 132.621 18.044C132.903 18.6274 133.044 19.3433 133.044 20.1918C133.044 21.0303 132.906 21.7429 132.631 22.3295C132.356 22.9162 131.981 23.3636 131.507 23.6719C131.033 23.9801 130.497 24.1342 129.897 24.1342C129.459 24.1342 129.096 24.0613 128.808 23.9155C128.52 23.7696 128.288 23.594 128.112 23.3885C127.94 23.1797 127.805 22.9825 127.709 22.7969H127.635V26.8636H125.835ZM127.6 20.1818C127.6 20.6757 127.669 21.1082 127.809 21.4794C127.951 21.8506 128.155 22.1406 128.42 22.3494C128.689 22.5549 129.013 22.6577 129.395 22.6577C129.792 22.6577 130.125 22.5516 130.394 22.3395C130.662 22.1241 130.864 21.8307 131 21.4595C131.14 21.085 131.209 20.6591 131.209 20.1818C131.209 19.7079 131.141 19.2869 131.005 18.919C130.869 18.5511 130.667 18.2628 130.399 18.054C130.13 17.8452 129.796 17.7408 129.395 17.7408C129.01 17.7408 128.684 17.8419 128.415 18.044C128.147 18.2462 127.943 18.5296 127.804 18.8942C127.668 19.2588 127.6 19.688 127.6 20.1818ZM136.782 24.1541C136.298 24.1541 135.863 24.0679 135.475 23.8956C135.09 23.7199 134.785 23.4614 134.56 23.12C134.338 22.7786 134.227 22.3577 134.227 21.8572C134.227 21.4264 134.306 21.0701 134.466 20.7884C134.625 20.5066 134.842 20.2812 135.117 20.1122C135.392 19.9432 135.702 19.8156 136.047 19.7294C136.395 19.6399 136.754 19.5753 137.125 19.5355C137.573 19.4891 137.936 19.4477 138.214 19.4112C138.493 19.3714 138.695 19.3118 138.821 19.2322C138.95 19.1494 139.015 19.0218 139.015 18.8494V18.8196C139.015 18.4451 138.904 18.1551 138.681 17.9496C138.459 17.7441 138.14 17.6413 137.722 17.6413C137.281 17.6413 136.931 17.7375 136.673 17.9297C136.418 18.1219 136.245 18.349 136.156 18.6108L134.475 18.3722C134.608 17.9081 134.827 17.5204 135.132 17.2088C135.437 16.8939 135.81 16.6586 136.25 16.5028C136.691 16.3438 137.178 16.2642 137.712 16.2642C138.08 16.2642 138.446 16.3073 138.811 16.3935C139.175 16.4796 139.508 16.6222 139.81 16.821C140.112 17.0166 140.354 17.2834 140.536 17.6214C140.721 17.9595 140.814 18.3821 140.814 18.8892V24H139.084V22.951H139.025C138.915 23.1631 138.761 23.362 138.562 23.5476C138.367 23.7299 138.12 23.8774 137.821 23.9901C137.526 24.0994 137.18 24.1541 136.782 24.1541ZM137.25 22.8317C137.611 22.8317 137.924 22.7604 138.189 22.6179C138.454 22.4721 138.658 22.2798 138.801 22.0412C138.947 21.8026 139.02 21.5424 139.02 21.2607V20.3608C138.963 20.4072 138.867 20.4503 138.731 20.4901C138.599 20.5298 138.449 20.5646 138.284 20.5945C138.118 20.6243 137.954 20.6508 137.792 20.674C137.629 20.6972 137.488 20.7171 137.369 20.7337C137.1 20.7701 136.86 20.8298 136.648 20.9126C136.436 20.9955 136.269 21.1115 136.146 21.2607C136.023 21.4065 135.962 21.5954 135.962 21.8274C135.962 22.1589 136.083 22.4091 136.325 22.5781C136.567 22.7472 136.875 22.8317 137.25 22.8317ZM146.437 16.3636V17.7557H142.047V16.3636H146.437ZM143.131 14.5341H144.931V21.7031C144.931 21.9451 144.967 22.1307 145.04 22.2599C145.116 22.3859 145.216 22.4721 145.338 22.5185C145.461 22.5649 145.597 22.5881 145.746 22.5881C145.859 22.5881 145.962 22.5798 146.054 22.5632C146.15 22.5466 146.223 22.5317 146.273 22.5185L146.576 23.9254C146.48 23.9586 146.343 23.995 146.164 24.0348C145.988 24.0746 145.773 24.0978 145.517 24.1044C145.067 24.1177 144.661 24.0497 144.299 23.9006C143.938 23.7481 143.651 23.5128 143.439 23.1946C143.23 22.8764 143.128 22.4787 143.131 22.0014V14.5341ZM149.906 19.5256V24H148.106V13.8182H149.866V17.6612H149.956C150.135 17.2304 150.412 16.8906 150.786 16.642C151.164 16.3902 151.644 16.2642 152.228 16.2642C152.758 16.2642 153.22 16.3752 153.615 16.5973C154.009 16.8194 154.314 17.1442 154.53 17.5717C154.748 17.9993 154.858 18.5213 154.858 19.1378V24H153.058V19.4162C153.058 18.9025 152.925 18.5031 152.66 18.218C152.398 17.9297 152.031 17.7855 151.557 17.7855C151.238 17.7855 150.953 17.8551 150.702 17.9943C150.453 18.1302 150.257 18.3274 150.115 18.5859C149.976 18.8445 149.906 19.1577 149.906 19.5256ZM162.728 18.3821L161.087 18.5611C161.041 18.3954 160.96 18.2396 160.844 18.0938C160.731 17.9479 160.578 17.8303 160.386 17.7408C160.194 17.6513 159.959 17.6065 159.68 17.6065C159.306 17.6065 158.991 17.6877 158.736 17.8501C158.484 18.0125 158.359 18.223 158.363 18.4815C158.359 18.7036 158.441 18.8842 158.606 19.0234C158.775 19.1626 159.054 19.277 159.442 19.3665L160.744 19.6449C161.467 19.8007 162.004 20.0476 162.355 20.3857C162.71 20.7237 162.889 21.1662 162.892 21.7131C162.889 22.1937 162.748 22.6179 162.469 22.9858C162.194 23.3504 161.811 23.6354 161.321 23.8409C160.83 24.0464 160.267 24.1491 159.631 24.1491C158.696 24.1491 157.943 23.9536 157.373 23.5625C156.803 23.1681 156.464 22.6196 156.354 21.9169L158.109 21.7479C158.189 22.0926 158.358 22.3527 158.616 22.5284C158.875 22.7041 159.211 22.7919 159.626 22.7919C160.053 22.7919 160.396 22.7041 160.655 22.5284C160.916 22.3527 161.047 22.1357 161.047 21.8771C161.047 21.6584 160.963 21.4777 160.794 21.3352C160.628 21.1927 160.37 21.0833 160.018 21.0071L158.716 20.7337C157.983 20.5812 157.441 20.3243 157.09 19.9631C156.739 19.5985 156.565 19.1378 156.568 18.581C156.565 18.1103 156.692 17.7027 156.951 17.358C157.213 17.0099 157.576 16.7415 158.04 16.5526C158.507 16.3603 159.046 16.2642 159.655 16.2642C160.55 16.2642 161.255 16.4548 161.768 16.8359C162.285 17.2171 162.605 17.7325 162.728 18.3821Z" fill="black"/>
<path d="M17.8429 17.0775C17.6867 17.4122 17.5751 17.6242 17.497 17.8473C16.928 19.5655 15.8123 20.9266 14.6966 22.299C14.4288 22.6337 14.1722 22.9684 13.8933 23.2919C13.592 23.649 13.2239 23.7159 12.8668 23.437C12.5098 23.158 12.4763 22.7564 12.7553 22.3994C13.4805 21.451 14.3061 20.5808 14.9197 19.5766C15.5668 18.5279 16.2251 17.4122 16.5263 16.2407C16.9168 14.7122 16.9615 13.1056 17.1623 11.4209C16.4817 11.8113 15.7119 11.9118 15.366 12.7374C15.0759 13.418 14.6966 14.0651 14.3507 14.7233C14.1945 15.0357 13.9602 15.27 13.6032 15.1027C13.2127 14.9242 13.235 14.5895 13.4135 14.2436C13.871 13.3733 14.3172 12.4919 14.7747 11.6217C14.797 11.5771 14.8193 11.499 14.8639 11.4766C15.8681 10.9299 16.7606 10.0932 18.0325 10.1713C18.3449 10.1936 18.6573 10.2605 18.9697 10.294C19.7284 10.3721 20.342 10.6956 20.5875 11.4543C20.978 12.6258 21.9486 13.0833 22.9751 13.5072C23.1982 13.5965 23.466 13.6634 23.611 13.8308C23.7561 13.9981 23.8453 14.2994 23.7896 14.489C23.7449 14.6229 23.3656 14.8014 23.2206 14.7345C22.3615 14.3775 21.5024 14.0204 20.7102 13.5407C20.342 13.3064 20.1301 12.8043 19.7842 12.3246C19.6726 12.9494 19.5834 13.4737 19.4941 13.987C19.4048 14.5225 19.3267 15.0469 19.2152 15.5824C19.1148 16.0733 19.2598 16.4527 19.6391 16.7651C20.2305 17.2448 20.8329 17.7134 21.3796 18.249C21.6139 18.4833 21.8259 18.8626 21.8482 19.1861C21.9152 20.3688 21.904 21.5626 21.9152 22.7564C21.9263 23.225 21.759 23.5709 21.2569 23.6266C20.8329 23.6713 20.5205 23.3142 20.5094 22.7787C20.4871 21.8304 20.4982 20.882 20.4648 19.9337C20.4536 19.6659 20.3978 19.3312 20.2305 19.1638C19.4829 18.4498 18.702 17.8027 17.8429 17.0775Z" fill="#644EFF"/>
<path d="M12.9115 21.5068C12.2197 22.9349 11.5726 24.2403 10.9255 25.5456C10.8697 25.6572 10.7024 25.7688 10.5908 25.7799C9.57552 25.8022 8.56023 25.7911 7.3999 25.7911C8.01354 24.9989 8.53792 24.3184 9.07346 23.6489C9.53089 23.0688 10.0218 22.4998 10.4681 21.9084C10.6912 21.6072 10.9367 21.4845 11.316 21.5068C11.7958 21.5291 12.2978 21.5068 12.9115 21.5068Z" fill="#644EFF"/>
<path d="M22.2275 21.5291C23.1759 21.5291 24.0573 21.3394 24.8718 22.1316C26.0544 23.3031 27.3821 24.3295 28.654 25.4006C28.7432 25.4787 28.8771 25.5121 28.9999 25.5679C28.9552 25.6349 28.9218 25.7018 28.8771 25.7688C27.8172 25.7688 26.7461 25.7799 25.6862 25.7576C25.5858 25.7576 25.4631 25.6349 25.3961 25.5345C24.3697 24.2626 23.3432 22.9907 22.328 21.7188C22.2833 21.6964 22.2722 21.6407 22.2275 21.5291Z" fill="#644EFF"/>
<path d="M22.1272 25.7911C21.1454 25.7911 20.3309 25.8023 19.5165 25.7799C19.3826 25.7799 19.1706 25.6126 19.1371 25.4899C18.7913 24.1956 18.49 22.9014 18.1442 21.518C18.7355 21.518 19.271 21.4956 19.7954 21.5403C19.907 21.5514 20.052 21.7746 20.0855 21.9308C20.1301 22.1985 20.119 22.4886 20.1078 22.7675C20.0855 23.4146 20.3756 23.8163 20.9892 24.0283C21.1454 24.0841 21.3016 24.218 21.3909 24.363C21.6363 24.7646 21.8371 25.2221 22.1272 25.7911Z" fill="#644EFF"/>
<path d="M13.7371 25.7911C14.0718 24.7088 14.0271 23.6043 14.8304 22.7787C15.154 22.444 15.3883 22.0312 15.7119 21.6964C15.8234 21.5737 16.0689 21.5068 16.2474 21.5291C16.3366 21.5403 16.4371 21.808 16.4482 21.9531C16.4705 23.0688 16.4482 24.1845 16.4705 25.3002C16.4705 25.646 16.3701 25.8022 15.9908 25.7911C15.2544 25.7688 14.5404 25.7911 13.7371 25.7911Z" fill="#644EFF"/>
<path d="M18.7801 10.0708C18.1777 10.0374 17.6979 9.52414 17.7202 8.94398C17.7425 8.3415 18.2892 7.81712 18.8806 7.83943C19.483 7.86175 19.9963 8.4196 19.9628 9.02208C19.9293 9.65803 19.4273 10.1043 18.7801 10.0708Z" fill="#644EFF"/>
</svg>
