<svg width="106" height="36" viewBox="0 0 106 36" fill="none" xmlns="http://www.w3.org/2000/svg">
<circle cx="18" cy="18" r="18" fill="#E9E3FF"/>
<circle cx="18" cy="18" r="17.5" stroke="#644EFF" stroke-opacity="0.17"/>
<path d="M18.2584 13.2151C18.3574 13.2283 18.4471 13.2803 18.5078 13.3597C18.5685 13.4391 18.5952 13.5393 18.5821 13.6383L17.588 21.0998C17.937 20.4616 18.3621 19.8681 18.8538 19.332C19.0781 19.1066 19.3328 18.9137 19.6105 18.7589L20.4181 12.458H8.46233L10.1223 25.415C10.1584 25.6874 10.292 25.9374 10.4984 26.1187C10.7048 26.3001 10.9699 26.4004 11.2446 26.4012H15.9506C15.9977 25.449 16.1805 24.5087 16.4932 23.6081L17.8352 13.5388C17.8484 13.4398 17.9004 13.3501 17.9798 13.2894C18.0591 13.2287 18.1593 13.2019 18.2584 13.2151ZM12.2289 25.2673C12.1298 25.2805 12.0296 25.2538 11.9503 25.1931C11.8709 25.1324 11.8189 25.0426 11.8057 24.9436L10.2983 13.6383C10.2906 13.5887 10.2928 13.5381 10.3049 13.4894C10.317 13.4407 10.3388 13.3949 10.3688 13.3546C10.3989 13.3144 10.4366 13.2806 10.4799 13.2552C10.5232 13.2298 10.5711 13.2133 10.6209 13.2067C10.6707 13.2001 10.7212 13.2035 10.7697 13.2167C10.8181 13.2298 10.8634 13.2526 10.9029 13.2835C10.9424 13.3144 10.9754 13.353 10.9998 13.3968C11.0243 13.4406 11.0397 13.4889 11.0452 13.5388L12.5526 24.8441C12.5658 24.9432 12.5391 25.0434 12.4783 25.1227C12.4176 25.2021 12.3279 25.2541 12.2289 25.2673ZM14.817 24.8939C14.817 24.9938 14.7773 25.0897 14.7067 25.1603C14.636 25.231 14.5401 25.2707 14.4402 25.2707C14.3402 25.2707 14.2444 25.231 14.1737 25.1603C14.1031 25.0897 14.0634 24.9938 14.0634 24.8939V13.5886C14.0634 13.4886 14.1031 13.3928 14.1737 13.3221C14.2444 13.2514 14.3402 13.2117 14.4402 13.2117C14.5401 13.2117 14.636 13.2514 14.7067 13.3221C14.7773 13.3928 14.817 13.4886 14.817 13.5886V24.8939ZM17.473 9.40297L16.4887 7.11025C16.4006 6.90798 16.2554 6.73577 16.071 6.61469C15.8865 6.49362 15.6708 6.42893 15.4501 6.42854H13.4303C13.2092 6.42903 12.9932 6.494 12.8086 6.6155C12.6239 6.73699 12.4788 6.90973 12.3909 7.11251L11.4077 9.40297C9.47189 9.85028 8.01916 10.7027 7.71429 11.7043H21.1646C20.8609 10.7031 19.4085 9.85066 17.473 9.40297ZM12.3009 9.23226L13.0836 7.41248C13.1439 7.27418 13.2795 7.18374 13.4303 7.18223H15.4501C15.6001 7.18261 15.7362 7.27116 15.7972 7.40834L16.5795 9.23113C15.1619 9.00978 13.7185 9.00978 12.3009 9.23113V9.23226ZM22.0027 17.8424C22.0464 17.8311 22.0958 17.8171 22.1365 17.807C22.5268 17.7105 22.9347 17.7105 23.325 17.807C23.4532 17.839 23.5986 17.8782 23.7516 17.92C24.0425 17.7086 24.2832 17.4357 24.4566 17.1208C24.63 16.8058 24.7318 16.4564 24.7548 16.0976C24.306 16.1104 23.8597 16.0273 23.4456 15.8537C23.0316 15.6801 22.6594 15.4201 22.3539 15.091C22.3206 15.3591 22.2272 15.6162 22.0807 15.843C21.9341 16.0699 21.7382 16.2608 21.5075 16.4013C21.3379 16.4774 21.2275 16.644 21.2234 16.8294C21.2151 17.1644 21.506 17.536 22.0027 17.8424Z" fill="#644EFF"/>
<path d="M28.7523 26.2772C28.7249 25.9587 28.6329 25.6491 28.4819 25.3674C28.3308 25.0856 28.124 24.8375 27.8739 24.6383C27.5918 24.4051 27.2606 24.2385 26.9052 24.1509C26.5497 24.0634 26.1791 24.0571 25.8209 24.1326C25.7717 24.1442 25.7206 24.1458 25.6707 24.1373C25.6209 24.1288 25.5733 24.1103 25.5307 24.083C25.4881 24.0556 25.4515 24.02 25.423 23.9782C25.3945 23.9365 25.3747 23.8894 25.3648 23.8398C25.3549 23.7902 25.355 23.7391 25.3653 23.6896C25.3755 23.64 25.3956 23.5931 25.4244 23.5515C25.4532 23.5099 25.49 23.4745 25.5328 23.4474C25.5755 23.4204 25.6232 23.4022 25.6732 23.394C26.1329 23.2971 26.6084 23.3036 27.0653 23.4131C27.5222 23.5226 27.949 23.7324 28.3148 24.0271C27.8408 22.505 27.0279 20.8669 26.0624 19.8494C25.6012 19.3633 24.5377 18.8855 23.1442 18.5384C22.8738 18.4702 22.5907 18.4702 22.3204 18.5384C20.9261 18.8855 19.8634 19.3633 19.4021 19.8494C17.8555 21.4774 16.7013 24.6941 16.7013 26.4826C16.6916 26.8826 16.8166 27.2743 17.0563 27.5947C17.432 28.0853 17.9825 28.2854 18.9623 28.2854C19.4286 28.2895 19.8938 28.2389 20.3484 28.1347C21.1309 27.9663 21.9305 27.8904 22.7308 27.9086C23.531 27.8904 24.3306 27.9663 25.1132 28.1347C25.5676 28.2391 26.0327 28.2892 26.4992 28.2854C27.413 28.2854 28.0541 28.0529 28.4053 27.5947C28.6449 27.2744 28.7701 26.8825 28.7603 26.4826C28.7603 26.4174 28.7554 26.3462 28.7523 26.2772ZM20.4938 20.8884C19.228 22.2209 18.2086 25.0389 18.2086 26.4826C18.2086 26.5826 18.1689 26.6784 18.0983 26.7491C18.0276 26.8198 17.9317 26.8595 17.8318 26.8595C17.7319 26.8595 17.636 26.8198 17.5653 26.7491C17.4947 26.6784 17.455 26.5826 17.455 26.4826C17.455 24.8358 18.5207 21.8712 19.947 20.3683C19.9811 20.3324 20.0219 20.3036 20.0671 20.2835C20.1123 20.2633 20.1611 20.2523 20.2106 20.251C20.26 20.2497 20.3093 20.2582 20.3555 20.2759C20.4017 20.2937 20.444 20.3203 20.4799 20.3544C20.5158 20.3885 20.5446 20.4293 20.5648 20.4745C20.5849 20.5197 20.5959 20.5685 20.5972 20.6179C20.5985 20.6674 20.59 20.7167 20.5723 20.7629C20.5546 20.8091 20.5279 20.8513 20.4938 20.8873V20.8884ZM22.6829 20.002C22.4662 20.0559 22.2635 20.1128 22.0739 20.1701C22.0263 20.1857 21.976 20.1916 21.926 20.1875C21.876 20.1834 21.8274 20.1694 21.7829 20.1462C21.7384 20.1231 21.699 20.0913 21.6669 20.0527C21.6349 20.0142 21.6109 19.9696 21.5963 19.9216C21.5817 19.8736 21.5768 19.8232 21.5819 19.7734C21.5871 19.7235 21.6021 19.6751 21.6262 19.6311C21.6502 19.5871 21.6828 19.5484 21.722 19.5172C21.7613 19.4859 21.8063 19.4628 21.8546 19.4492C22.0686 19.3842 22.2842 19.3248 22.5013 19.271C22.5499 19.2572 22.6007 19.2534 22.6508 19.2597C22.7009 19.266 22.7493 19.2823 22.7929 19.3077C22.8366 19.333 22.8747 19.3669 22.9051 19.4073C22.9354 19.4477 22.9573 19.4937 22.9695 19.5427C22.9817 19.5918 22.9839 19.6427 22.976 19.6926C22.9681 19.7425 22.9502 19.7902 22.9235 19.8331C22.8967 19.8759 22.8617 19.913 22.8203 19.942C22.779 19.971 22.7323 19.9914 22.6829 20.002Z" fill="#644EFF"/>
<path d="M51.8253 17.0696C51.7424 16.8011 51.6281 16.5608 51.4822 16.3487C51.3397 16.1333 51.1674 15.9493 50.9652 15.7969C50.7663 15.6444 50.5376 15.5301 50.2791 15.4538C50.0206 15.3743 49.7389 15.3345 49.4339 15.3345C48.8871 15.3345 48.3999 15.4721 47.9723 15.7472C47.5447 16.0223 47.2083 16.4266 46.9631 16.9602C46.7211 17.4905 46.6001 18.1368 46.6001 18.8991C46.6001 19.6681 46.7211 20.3194 46.9631 20.853C47.205 21.3866 47.5414 21.7926 47.9723 22.071C48.4032 22.3461 48.9036 22.4837 49.4737 22.4837C49.9908 22.4837 50.4382 22.3842 50.8161 22.1854C51.1972 21.9865 51.4905 21.7048 51.696 21.3402C51.9015 20.9723 52.0043 20.5414 52.0043 20.0476L52.4219 20.1122H49.6577V18.6705H53.7891V19.8935C53.7891 20.7652 53.6035 21.5192 53.2322 22.1555C52.861 22.7919 52.3506 23.2824 51.701 23.6271C51.0514 23.9685 50.3056 24.1392 49.4638 24.1392C48.5258 24.1392 47.7022 23.9287 46.9929 23.5078C46.2869 23.0836 45.7351 22.482 45.3374 21.7031C44.9429 20.9209 44.7457 19.9929 44.7457 18.919C44.7457 18.0971 44.8617 17.3629 45.0938 16.7166C45.3291 16.0703 45.6572 15.5218 46.0781 15.071C46.4991 14.617 46.9929 14.2723 47.5597 14.0369C48.1264 13.7983 48.7429 13.679 49.4091 13.679C49.9725 13.679 50.4979 13.7618 50.9851 13.9276C51.4723 14.09 51.9048 14.322 52.2827 14.6236C52.6638 14.9252 52.977 15.2831 53.2223 15.6974C53.4676 16.1117 53.6283 16.5691 53.7045 17.0696H51.8253ZM57.6905 24.1541C57.2066 24.1541 56.7708 24.0679 56.383 23.8956C55.9985 23.7199 55.6936 23.4614 55.4682 23.12C55.2462 22.7786 55.1351 22.3577 55.1351 21.8572C55.1351 21.4264 55.2147 21.0701 55.3738 20.7884C55.5328 20.5066 55.7499 20.2812 56.025 20.1122C56.3001 19.9432 56.61 19.8156 56.9547 19.7294C57.3027 19.6399 57.6623 19.5753 58.0336 19.5355C58.481 19.4891 58.8439 19.4477 59.1223 19.4112C59.4007 19.3714 59.6029 19.3118 59.7289 19.2322C59.8581 19.1494 59.9228 19.0218 59.9228 18.8494V18.8196C59.9228 18.4451 59.8117 18.1551 59.5897 17.9496C59.3676 17.7441 59.0478 17.6413 58.6301 17.6413C58.1893 17.6413 57.8397 17.7375 57.5811 17.9297C57.3259 18.1219 57.1536 18.349 57.0641 18.6108L55.3837 18.3722C55.5163 17.9081 55.735 17.5204 56.04 17.2088C56.3449 16.8939 56.7177 16.6586 57.1586 16.5028C57.5994 16.3438 58.0866 16.2642 58.6202 16.2642C58.9881 16.2642 59.3543 16.3073 59.7189 16.3935C60.0835 16.4796 60.4166 16.6222 60.7182 16.821C61.0198 17.0166 61.2618 17.2834 61.4441 17.6214C61.6297 17.9595 61.7225 18.3821 61.7225 18.8892V24H59.9924V22.951H59.9327C59.8233 23.1631 59.6692 23.362 59.4703 23.5476C59.2748 23.7299 59.0279 23.8774 58.7296 23.9901C58.4346 24.0994 58.0882 24.1541 57.6905 24.1541ZM58.1578 22.8317C58.5191 22.8317 58.8323 22.7604 59.0975 22.6179C59.3626 22.4721 59.5665 22.2798 59.709 22.0412C59.8548 21.8026 59.9277 21.5424 59.9277 21.2607V20.3608C59.8714 20.4072 59.7753 20.4503 59.6394 20.4901C59.5068 20.5298 59.3577 20.5646 59.1919 20.5945C59.0262 20.6243 58.8622 20.6508 58.6998 20.674C58.5373 20.6972 58.3965 20.7171 58.2772 20.7337C58.0087 20.7701 57.7684 20.8298 57.5563 20.9126C57.3442 20.9955 57.1768 21.1115 57.0542 21.2607C56.9315 21.4065 56.8702 21.5954 56.8702 21.8274C56.8702 22.1589 56.9912 22.4091 57.2331 22.5781C57.4751 22.7472 57.7833 22.8317 58.1578 22.8317ZM63.5321 24V16.3636H65.2772V17.6364H65.3567C65.4959 17.1955 65.7346 16.8558 66.0726 16.6172C66.414 16.3752 66.8034 16.2543 67.2409 16.2543C67.3404 16.2543 67.4514 16.2592 67.574 16.2692C67.7 16.2758 67.8044 16.2874 67.8873 16.304V17.9595C67.811 17.933 67.69 17.9098 67.5243 17.8899C67.3619 17.8667 67.2045 17.8551 67.052 17.8551C66.7239 17.8551 66.4289 17.9264 66.1671 18.0689C65.9086 18.2081 65.7047 18.402 65.5556 18.6506C65.4064 18.8991 65.3319 19.1858 65.3319 19.5107V24H63.5321ZM69.1625 24V13.8182H70.9622V17.6264H71.0368C71.1296 17.4408 71.2605 17.2436 71.4295 17.0348C71.5985 16.8227 71.8272 16.642 72.1156 16.4929C72.4039 16.3404 72.7718 16.2642 73.2193 16.2642C73.8092 16.2642 74.3412 16.415 74.8152 16.7166C75.2924 17.0149 75.6703 17.4574 75.9487 18.044C76.2304 18.6274 76.3713 19.3433 76.3713 20.1918C76.3713 21.0303 76.2337 21.7429 75.9586 22.3295C75.6835 22.9162 75.309 23.3636 74.835 23.6719C74.3611 23.9801 73.8242 24.1342 73.2243 24.1342C72.7868 24.1342 72.4238 24.0613 72.1355 23.9155C71.8471 23.7696 71.6151 23.594 71.4395 23.3885C71.2671 23.1797 71.1329 22.9825 71.0368 22.7969H70.9324V24H69.1625ZM70.9274 20.1818C70.9274 20.6757 70.997 21.1082 71.1362 21.4794C71.2787 21.8506 71.4825 22.1406 71.7477 22.3494C72.0162 22.5549 72.341 22.6577 72.7221 22.6577C73.1199 22.6577 73.4529 22.5516 73.7214 22.3395C73.9899 22.1241 74.1921 21.8307 74.3279 21.4595C74.4672 21.085 74.5368 20.6591 74.5368 20.1818C74.5368 19.7079 74.4688 19.2869 74.3329 18.919C74.197 18.5511 73.9949 18.2628 73.7264 18.054C73.4579 17.8452 73.1232 17.7408 72.7221 17.7408C72.3377 17.7408 72.0112 17.8419 71.7427 18.044C71.4743 18.2462 71.2704 18.5296 71.1312 18.8942C70.9953 19.2588 70.9274 19.688 70.9274 20.1818ZM80.0987 24.1541C79.6148 24.1541 79.179 24.0679 78.7912 23.8956C78.4067 23.7199 78.1018 23.4614 77.8764 23.12C77.6544 22.7786 77.5433 22.3577 77.5433 21.8572C77.5433 21.4264 77.6229 21.0701 77.782 20.7884C77.9411 20.5066 78.1581 20.2812 78.4332 20.1122C78.7083 19.9432 79.0182 19.8156 79.3629 19.7294C79.7109 19.6399 80.0705 19.5753 80.4418 19.5355C80.8892 19.4891 81.2521 19.4477 81.5305 19.4112C81.8089 19.3714 82.0111 19.3118 82.1371 19.2322C82.2663 19.1494 82.331 19.0218 82.331 18.8494V18.8196C82.331 18.4451 82.2199 18.1551 81.9979 17.9496C81.7758 17.7441 81.456 17.6413 81.0384 17.6413C80.5975 17.6413 80.2479 17.7375 79.9893 17.9297C79.7341 18.1219 79.5618 18.349 79.4723 18.6108L77.7919 18.3722C77.9245 17.9081 78.1432 17.5204 78.4482 17.2088C78.7531 16.8939 79.1259 16.6586 79.5668 16.5028C80.0076 16.3438 80.4948 16.2642 81.0284 16.2642C81.3963 16.2642 81.7625 16.3073 82.1271 16.3935C82.4917 16.4796 82.8248 16.6222 83.1264 16.821C83.428 17.0166 83.67 17.2834 83.8523 17.6214C84.0379 17.9595 84.1307 18.3821 84.1307 18.8892V24H82.4006V22.951H82.3409C82.2315 23.1631 82.0774 23.362 81.8786 23.5476C81.683 23.7299 81.4361 23.8774 81.1378 23.9901C80.8428 24.0994 80.4964 24.1541 80.0987 24.1541ZM80.5661 22.8317C80.9273 22.8317 81.2405 22.7604 81.5057 22.6179C81.7708 22.4721 81.9747 22.2798 82.1172 22.0412C82.263 21.8026 82.3359 21.5424 82.3359 21.2607V20.3608C82.2796 20.4072 82.1835 20.4503 82.0476 20.4901C81.915 20.5298 81.7659 20.5646 81.6001 20.5945C81.4344 20.6243 81.2704 20.6508 81.108 20.674C80.9455 20.6972 80.8047 20.7171 80.6854 20.7337C80.4169 20.7701 80.1766 20.8298 79.9645 20.9126C79.7524 20.9955 79.585 21.1115 79.4624 21.2607C79.3397 21.4065 79.2784 21.5954 79.2784 21.8274C79.2784 22.1589 79.3994 22.4091 79.6413 22.5781C79.8833 22.7472 80.1915 22.8317 80.5661 22.8317ZM89.2614 27.0227C88.6151 27.0227 88.0599 26.9349 87.5959 26.7592C87.1319 26.5869 86.759 26.3549 86.4773 26.0632C86.1955 25.7715 86 25.4484 85.8906 25.0938L87.5114 24.701C87.5843 24.8501 87.6903 24.9976 87.8295 25.1435C87.9688 25.2926 88.156 25.4152 88.3913 25.5114C88.63 25.6108 88.9299 25.6605 89.2912 25.6605C89.8016 25.6605 90.2242 25.5362 90.5589 25.2876C90.8937 25.0424 91.0611 24.638 91.0611 24.0746V22.6278H90.9716C90.8788 22.8134 90.7429 23.004 90.5639 23.1996C90.3883 23.3951 90.1546 23.5592 89.8629 23.6918C89.5746 23.8243 89.2116 23.8906 88.7741 23.8906C88.1875 23.8906 87.6555 23.7531 87.1783 23.478C86.7043 23.1996 86.3265 22.7853 86.0447 22.2351C85.7663 21.6816 85.6271 20.9889 85.6271 20.157C85.6271 19.3184 85.7663 18.6108 86.0447 18.0341C86.3265 17.4541 86.706 17.0149 87.1832 16.7166C87.6605 16.415 88.1925 16.2642 88.7791 16.2642C89.2266 16.2642 89.5945 16.3404 89.8828 16.4929C90.1745 16.642 90.4065 16.8227 90.5788 17.0348C90.7512 17.2436 90.8821 17.4408 90.9716 17.6264H91.071V16.3636H92.8459V24.1243C92.8459 24.7772 92.6901 25.3175 92.3786 25.745C92.067 26.1726 91.6411 26.4924 91.1009 26.7045C90.5606 26.9167 89.9474 27.0227 89.2614 27.0227ZM89.2763 22.4787C89.6574 22.4787 89.9822 22.3859 90.2507 22.2003C90.5192 22.0147 90.723 21.7479 90.8622 21.3999C91.0014 21.0518 91.071 20.6342 91.071 20.147C91.071 19.6664 91.0014 19.2455 90.8622 18.8842C90.7263 18.523 90.5241 18.2429 90.2557 18.044C89.9905 17.8419 89.6641 17.7408 89.2763 17.7408C88.8752 17.7408 88.5405 17.8452 88.272 18.054C88.0036 18.2628 87.8014 18.5495 87.6655 18.9141C87.5296 19.2753 87.4616 19.6863 87.4616 20.147C87.4616 20.6143 87.5296 21.0237 87.6655 21.375C87.8047 21.723 88.0085 21.9948 88.277 22.1903C88.5488 22.3826 88.8819 22.4787 89.2763 22.4787ZM98.071 24.1491C97.3054 24.1491 96.6442 23.9901 96.0874 23.6719C95.5339 23.3504 95.108 22.8963 94.8097 22.3097C94.5114 21.7197 94.3622 21.0253 94.3622 20.2266C94.3622 19.4411 94.5114 18.7517 94.8097 18.1584C95.1113 17.5618 95.5322 17.0978 96.0724 16.7663C96.6127 16.4316 97.2474 16.2642 97.9766 16.2642C98.4472 16.2642 98.8913 16.3404 99.3089 16.4929C99.7299 16.642 100.101 16.8741 100.423 17.1889C100.747 17.5038 101.003 17.9048 101.188 18.392C101.374 18.8759 101.467 19.4527 101.467 20.1222V20.674H95.2074V19.4609H99.7415C99.7382 19.1162 99.6636 18.8097 99.5178 18.5412C99.3719 18.2694 99.1681 18.0556 98.9062 17.8999C98.6477 17.7441 98.3461 17.6662 98.0014 17.6662C97.6335 17.6662 97.3104 17.7557 97.032 17.9347C96.7536 18.1103 96.5365 18.3423 96.3807 18.6307C96.2282 18.9157 96.1503 19.2289 96.147 19.5703V20.6293C96.147 21.0734 96.2282 21.4545 96.3906 21.7727C96.553 22.0876 96.7801 22.3295 97.0717 22.4986C97.3634 22.6643 97.7048 22.7472 98.0959 22.7472C98.3577 22.7472 98.5947 22.7107 98.8068 22.6378C99.0189 22.5616 99.2029 22.4505 99.3587 22.3047C99.5144 22.1589 99.6321 21.9782 99.7116 21.7628L101.392 21.9517C101.286 22.3958 101.084 22.7836 100.786 23.1151C100.491 23.4432 100.113 23.6984 99.652 23.8807C99.1913 24.0597 98.6643 24.1491 98.071 24.1491Z" fill="black"/>
</svg>
