<svg width="131" height="36" viewBox="0 0 131 36" fill="none" xmlns="http://www.w3.org/2000/svg">
<circle cx="18" cy="18" r="18" fill="#E9E3FF"/>
<circle cx="18" cy="18" r="17.5" stroke="#644EFF" stroke-opacity="0.17"/>
<path d="M46.8487 13.8182V24H45.0043V13.8182H46.8487ZM50.5662 13.8182V24H48.7665V13.8182H50.5662ZM54.2166 13.8182V24H52.4169V13.8182H54.2166ZM59.448 24.1491C58.6824 24.1491 58.0211 23.9901 57.4643 23.6719C56.9108 23.3504 56.4849 22.8963 56.1866 22.3097C55.8883 21.7197 55.7392 21.0253 55.7392 20.2266C55.7392 19.4411 55.8883 18.7517 56.1866 18.1584C56.4882 17.5618 56.9092 17.0978 57.4494 16.7663C57.9896 16.4316 58.6243 16.2642 59.3535 16.2642C59.8242 16.2642 60.2683 16.3404 60.6859 16.4929C61.1068 16.642 61.478 16.8741 61.7995 17.1889C62.1243 17.5038 62.3796 17.9048 62.5652 18.392C62.7508 18.8759 62.8436 19.4527 62.8436 20.1222V20.674H56.5843V19.4609H61.1184C61.1151 19.1162 61.0405 18.8097 60.8947 18.5412C60.7489 18.2694 60.545 18.0556 60.2832 17.8999C60.0247 17.7441 59.7231 17.6662 59.3784 17.6662C59.0105 17.6662 58.6873 17.7557 58.4089 17.9347C58.1305 18.1103 57.9134 18.3423 57.7576 18.6307C57.6052 18.9157 57.5273 19.2289 57.524 19.5703V20.6293C57.524 21.0734 57.6052 21.4545 57.7676 21.7727C57.93 22.0876 58.157 22.3295 58.4487 22.4986C58.7404 22.6643 59.0817 22.7472 59.4728 22.7472C59.7347 22.7472 59.9717 22.7107 60.1838 22.6378C60.3959 22.5616 60.5798 22.4505 60.7356 22.3047C60.8914 22.1589 61.0091 21.9782 61.0886 21.7628L62.769 21.9517C62.6629 22.3958 62.4608 22.7836 62.1625 23.1151C61.8675 23.4432 61.4896 23.6984 61.0289 23.8807C60.5682 24.0597 60.0413 24.1491 59.448 24.1491ZM67.6871 27.0227C67.0408 27.0227 66.4857 26.9349 66.0217 26.7592C65.5576 26.5869 65.1848 26.3549 64.9031 26.0632C64.6213 25.7715 64.4258 25.4484 64.3164 25.0938L65.9371 24.701C66.0101 24.8501 66.1161 24.9976 66.2553 25.1435C66.3945 25.2926 66.5818 25.4152 66.8171 25.5114C67.0558 25.6108 67.3557 25.6605 67.717 25.6605C68.2274 25.6605 68.65 25.5362 68.9847 25.2876C69.3195 25.0424 69.4869 24.638 69.4869 24.0746V22.6278H69.3974C69.3046 22.8134 69.1687 23.004 68.9897 23.1996C68.814 23.3951 68.5804 23.5592 68.2887 23.6918C68.0004 23.8243 67.6374 23.8906 67.1999 23.8906C66.6133 23.8906 66.0813 23.7531 65.604 23.478C65.1301 23.1996 64.7522 22.7853 64.4705 22.2351C64.1921 21.6816 64.0529 20.9889 64.0529 20.157C64.0529 19.3184 64.1921 18.6108 64.4705 18.0341C64.7522 17.4541 65.1317 17.0149 65.609 16.7166C66.0863 16.415 66.6183 16.2642 67.2049 16.2642C67.6523 16.2642 68.0202 16.3404 68.3086 16.4929C68.6003 16.642 68.8323 16.8227 69.0046 17.0348C69.177 17.2436 69.3079 17.4408 69.3974 17.6264H69.4968V16.3636H71.2717V24.1243C71.2717 24.7772 71.1159 25.3175 70.8043 25.745C70.4928 26.1726 70.0669 26.4924 69.5266 26.7045C68.9864 26.9167 68.3732 27.0227 67.6871 27.0227ZM67.7021 22.4787C68.0832 22.4787 68.408 22.3859 68.6765 22.2003C68.945 22.0147 69.1488 21.7479 69.288 21.3999C69.4272 21.0518 69.4968 20.6342 69.4968 20.147C69.4968 19.6664 69.4272 19.2455 69.288 18.8842C69.1521 18.523 68.9499 18.2429 68.6815 18.044C68.4163 17.8419 68.0898 17.7408 67.7021 17.7408C67.301 17.7408 66.9663 17.8452 66.6978 18.054C66.4293 18.2628 66.2272 18.5495 66.0913 18.9141C65.9554 19.2753 65.8874 19.6863 65.8874 20.147C65.8874 20.6143 65.9554 21.0237 66.0913 21.375C66.2305 21.723 66.4343 21.9948 66.7028 22.1903C66.9746 22.3826 67.3076 22.4787 67.7021 22.4787ZM75.3136 24.1541C74.8297 24.1541 74.3938 24.0679 74.006 23.8956C73.6216 23.7199 73.3166 23.4614 73.0913 23.12C72.8692 22.7786 72.7582 22.3577 72.7582 21.8572C72.7582 21.4264 72.8377 21.0701 72.9968 20.7884C73.1559 20.5066 73.373 20.2812 73.6481 20.1122C73.9232 19.9432 74.2331 19.8156 74.5778 19.7294C74.9258 19.6399 75.2854 19.5753 75.6566 19.5355C76.104 19.4891 76.467 19.4477 76.7454 19.4112C77.0238 19.3714 77.226 19.3118 77.3519 19.2322C77.4812 19.1494 77.5458 19.0218 77.5458 18.8494V18.8196C77.5458 18.4451 77.4348 18.1551 77.2127 17.9496C76.9906 17.7441 76.6708 17.6413 76.2532 17.6413C75.8124 17.6413 75.4627 17.7375 75.2042 17.9297C74.949 18.1219 74.7766 18.349 74.6871 18.6108L73.0067 18.3722C73.1393 17.9081 73.3581 17.5204 73.663 17.2088C73.9679 16.8939 74.3408 16.6586 74.7816 16.5028C75.2224 16.3438 75.7096 16.2642 76.2433 16.2642C76.6112 16.2642 76.9774 16.3073 77.342 16.3935C77.7066 16.4796 78.0397 16.6222 78.3413 16.821C78.6429 17.0166 78.8848 17.2834 79.0671 17.6214C79.2527 17.9595 79.3455 18.3821 79.3455 18.8892V24H77.6154V22.951H77.5558C77.4464 23.1631 77.2923 23.362 77.0934 23.5476C76.8978 23.7299 76.6509 23.8774 76.3526 23.9901C76.0576 24.0994 75.7113 24.1541 75.3136 24.1541ZM75.7809 22.8317C76.1422 22.8317 76.4554 22.7604 76.7205 22.6179C76.9857 22.4721 77.1895 22.2798 77.332 22.0412C77.4779 21.8026 77.5508 21.5424 77.5508 21.2607V20.3608C77.4944 20.4072 77.3983 20.4503 77.2624 20.4901C77.1299 20.5298 76.9807 20.5646 76.815 20.5945C76.6493 20.6243 76.4852 20.6508 76.3228 20.674C76.1604 20.6972 76.0195 20.7171 75.9002 20.7337C75.6317 20.7701 75.3915 20.8298 75.1793 20.9126C74.9672 20.9955 74.7998 21.1115 74.6772 21.2607C74.5546 21.4065 74.4933 21.5954 74.4933 21.8274C74.4933 22.1589 74.6142 22.4091 74.8562 22.5781C75.0981 22.7472 75.4064 22.8317 75.7809 22.8317ZM82.9549 13.8182V24H81.1552V13.8182H82.9549ZM88.3578 24V13.8182H94.8805V15.3643H90.2022V18.1286H94.4331V19.6747H90.2022V24H88.3578ZM98.2811 13.8182V24H96.4814V13.8182H98.2811ZM103.512 24.1491C102.747 24.1491 102.086 23.9901 101.529 23.6719C100.975 23.3504 100.549 22.8963 100.251 22.3097C99.9528 21.7197 99.8036 21.0253 99.8036 20.2266C99.8036 19.4411 99.9528 18.7517 100.251 18.1584C100.553 17.5618 100.974 17.0978 101.514 16.7663C102.054 16.4316 102.689 16.2642 103.418 16.2642C103.889 16.2642 104.333 16.3404 104.75 16.4929C105.171 16.642 105.542 16.8741 105.864 17.1889C106.189 17.5038 106.444 17.9048 106.63 18.392C106.815 18.8759 106.908 19.4527 106.908 20.1222V20.674H100.649V19.4609H105.183C105.18 19.1162 105.105 18.8097 104.959 18.5412C104.813 18.2694 104.609 18.0556 104.348 17.8999C104.089 17.7441 103.788 17.6662 103.443 17.6662C103.075 17.6662 102.752 17.7557 102.473 17.9347C102.195 18.1103 101.978 18.3423 101.822 18.6307C101.67 18.9157 101.592 19.2289 101.588 19.5703V20.6293C101.588 21.0734 101.67 21.4545 101.832 21.7727C101.994 22.0876 102.221 22.3295 102.513 22.4986C102.805 22.6643 103.146 22.7472 103.537 22.7472C103.799 22.7472 104.036 22.7107 104.248 22.6378C104.46 22.5616 104.644 22.4505 104.8 22.3047C104.956 22.1589 105.074 21.9782 105.153 21.7628L106.833 21.9517C106.727 22.3958 106.525 22.7836 106.227 23.1151C105.932 23.4432 105.554 23.6984 105.093 23.8807C104.633 24.0597 104.106 24.1491 103.512 24.1491ZM109.738 16.3636L111.279 19.1825L112.845 16.3636H114.749L112.448 20.1818L114.789 24H112.895L111.279 21.2507L109.678 24H107.769L110.096 20.1818L107.829 16.3636H109.738ZM119.235 24.1491C118.469 24.1491 117.808 23.9901 117.251 23.6719C116.698 23.3504 116.272 22.8963 115.974 22.3097C115.675 21.7197 115.526 21.0253 115.526 20.2266C115.526 19.4411 115.675 18.7517 115.974 18.1584C116.275 17.5618 116.696 17.0978 117.237 16.7663C117.777 16.4316 118.411 16.2642 119.141 16.2642C119.611 16.2642 120.055 16.3404 120.473 16.4929C120.894 16.642 121.265 16.8741 121.587 17.1889C121.911 17.5038 122.167 17.9048 122.352 18.392C122.538 18.8759 122.631 19.4527 122.631 20.1222V20.674H116.371V19.4609H120.906C120.902 19.1162 120.828 18.8097 120.682 18.5412C120.536 18.2694 120.332 18.0556 120.07 17.8999C119.812 17.7441 119.51 17.6662 119.165 17.6662C118.798 17.6662 118.474 17.7557 118.196 17.9347C117.918 18.1103 117.701 18.3423 117.545 18.6307C117.392 18.9157 117.314 19.2289 117.311 19.5703V20.6293C117.311 21.0734 117.392 21.4545 117.555 21.7727C117.717 22.0876 117.944 22.3295 118.236 22.4986C118.527 22.6643 118.869 22.7472 119.26 22.7472C119.522 22.7472 119.759 22.7107 119.971 22.6378C120.183 22.5616 120.367 22.4505 120.523 22.3047C120.679 22.1589 120.796 21.9782 120.876 21.7628L122.556 21.9517C122.45 22.3958 122.248 22.7836 121.95 23.1151C121.655 23.4432 121.277 23.6984 120.816 23.8807C120.355 24.0597 119.828 24.1491 119.235 24.1491ZM130.189 18.3821L128.548 18.5611C128.502 18.3954 128.421 18.2396 128.305 18.0938C128.192 17.9479 128.039 17.8303 127.847 17.7408C127.655 17.6513 127.42 17.6065 127.141 17.6065C126.767 17.6065 126.452 17.6877 126.197 17.8501C125.945 18.0125 125.82 18.223 125.824 18.4815C125.82 18.7036 125.902 18.8842 126.067 19.0234C126.236 19.1626 126.515 19.277 126.903 19.3665L128.205 19.6449C128.928 19.8007 129.465 20.0476 129.816 20.3857C130.171 20.7237 130.349 21.1662 130.353 21.7131C130.349 22.1937 130.209 22.6179 129.93 22.9858C129.655 23.3504 129.272 23.6354 128.782 23.8409C128.291 24.0464 127.728 24.1491 127.091 24.1491C126.157 24.1491 125.404 23.9536 124.834 23.5625C124.264 23.1681 123.925 22.6196 123.815 21.9169L125.57 21.7479C125.65 22.0926 125.819 22.3527 126.077 22.5284C126.336 22.7041 126.672 22.7919 127.086 22.7919C127.514 22.7919 127.857 22.7041 128.116 22.5284C128.377 22.3527 128.508 22.1357 128.508 21.8771C128.508 21.6584 128.424 21.4777 128.255 21.3352C128.089 21.1927 127.831 21.0833 127.479 21.0071L126.177 20.7337C125.444 20.5812 124.902 20.3243 124.551 19.9631C124.2 19.5985 124.026 19.1378 124.029 18.581C124.026 18.1103 124.153 17.7027 124.412 17.358C124.674 17.0099 125.037 16.7415 125.501 16.5526C125.968 16.3603 126.506 16.2642 127.116 16.2642C128.011 16.2642 128.715 16.4548 129.229 16.8359C129.746 17.2171 130.066 17.7325 130.189 18.3821Z" fill="black"/>
<path d="M18.5857 10H23.1815V11.434H18.5857V10Z" fill="#644EFF"/>
<path d="M26.2946 10H24.3387V11.434H24.9882C25.3126 11.434 25.588 11.6994 25.5819 12.0237C25.576 12.3381 25.3193 12.5912 25.0034 12.5912H11.0938C10.7695 12.5912 10.4941 12.3258 10.5002 12.0016C10.5061 11.6871 10.7628 11.434 11.0787 11.434H11.7078V10H9.70674C9.31641 10 9 10.3164 9 10.7067V19.7787C9 20.169 9.31641 20.4854 9.70674 20.4854H26.2946C26.685 20.4854 27.0014 20.169 27.0014 19.7787V10.7067C27.0014 10.3164 26.685 10 26.2946 10ZM25.4196 22.6449H24.8974V21.6426H23.7402V22.6449H19.4679C19.4611 22.6449 19.4546 22.6457 19.448 22.6459V21.6426H16.5663V22.6453C16.5642 22.6452 16.5622 22.6449 16.5601 22.6449H12.569V21.6426H11.4118V22.6449H10.5947C10.2704 22.6449 9.99497 22.9103 10.0011 23.2346C10.0069 23.549 10.2637 23.8022 10.5796 23.8022H16.5601C16.5622 23.8022 16.5642 23.8019 16.5663 23.8018V27.4556C16.5663 27.7639 16.8163 28.0138 17.1246 28.0138H18.8897C19.1981 28.0138 19.448 27.7639 19.448 27.4556V23.8012C19.4546 23.8014 19.4611 23.8022 19.4679 23.8022H25.4347C25.7506 23.8022 26.0074 23.549 26.0132 23.2346C26.0193 22.9103 25.7439 22.6449 25.4196 22.6449Z" fill="#644EFF"/>
<path d="M12.8651 10H17.4286V11.434H12.8651V10Z" fill="#644EFF"/>
</svg>
