<svg width="104" height="36" viewBox="0 0 104 36" fill="none" xmlns="http://www.w3.org/2000/svg">
<circle cx="18" cy="18" r="18" fill="#E9E3FF"/>
<circle cx="18" cy="18" r="17.5" stroke="#644EFF" stroke-opacity="0.17"/>
<path d="M45.0043 24V13.8182H48.8224C49.6046 13.8182 50.2609 13.964 50.7912 14.2557C51.3248 14.5473 51.7275 14.9484 51.9993 15.4588C52.2744 15.9659 52.4119 16.5426 52.4119 17.1889C52.4119 17.8419 52.2744 18.4219 51.9993 18.929C51.7242 19.4361 51.3182 19.8355 50.7812 20.1271C50.2443 20.4155 49.5831 20.5597 48.7976 20.5597H46.267V19.0433H48.549C49.0064 19.0433 49.3809 18.9638 49.6726 18.8047C49.9643 18.6456 50.1797 18.4268 50.3189 18.1484C50.4614 17.87 50.5327 17.5502 50.5327 17.1889C50.5327 16.8277 50.4614 16.5095 50.3189 16.2344C50.1797 15.9593 49.9626 15.7455 49.6676 15.593C49.3759 15.4373 48.9998 15.3594 48.5391 15.3594H46.8487V24H45.0043ZM57.1561 24.1491C56.4103 24.1491 55.764 23.9851 55.2172 23.657C54.6703 23.3288 54.246 22.8698 53.9444 22.2798C53.6461 21.6899 53.497 21.0005 53.497 20.2116C53.497 19.4228 53.6461 18.7318 53.9444 18.1385C54.246 17.5452 54.6703 17.0845 55.2172 16.7564C55.764 16.4283 56.4103 16.2642 57.1561 16.2642C57.9018 16.2642 58.5481 16.4283 59.095 16.7564C59.6419 17.0845 60.0645 17.5452 60.3627 18.1385C60.6644 18.7318 60.8152 19.4228 60.8152 20.2116C60.8152 21.0005 60.6644 21.6899 60.3627 22.2798C60.0645 22.8698 59.6419 23.3288 59.095 23.657C58.5481 23.9851 57.9018 24.1491 57.1561 24.1491ZM57.166 22.7074C57.5704 22.7074 57.9084 22.5964 58.1802 22.3743C58.452 22.1489 58.6542 21.8473 58.7868 21.4695C58.9226 21.0916 58.9906 20.6707 58.9906 20.2067C58.9906 19.7393 58.9226 19.3168 58.7868 18.9389C58.6542 18.5578 58.452 18.2545 58.1802 18.0291C57.9084 17.8037 57.5704 17.6911 57.166 17.6911C56.7517 17.6911 56.407 17.8037 56.1319 18.0291C55.8601 18.2545 55.6563 18.5578 55.5204 18.9389C55.3878 19.3168 55.3216 19.7393 55.3216 20.2067C55.3216 20.6707 55.3878 21.0916 55.5204 21.4695C55.6563 21.8473 55.8601 22.1489 56.1319 22.3743C56.407 22.5964 56.7517 22.7074 57.166 22.7074ZM66.1559 16.3636V17.7557H61.766V16.3636H66.1559ZM62.8498 14.5341H64.6495V21.7031C64.6495 21.9451 64.686 22.1307 64.7589 22.2599C64.8351 22.3859 64.9345 22.4721 65.0572 22.5185C65.1798 22.5649 65.3157 22.5881 65.4648 22.5881C65.5775 22.5881 65.6803 22.5798 65.7731 22.5632C65.8692 22.5466 65.9421 22.5317 65.9918 22.5185L66.2951 23.9254C66.199 23.9586 66.0614 23.995 65.8825 24.0348C65.7068 24.0746 65.4914 24.0978 65.2362 24.1044C64.7854 24.1177 64.3794 24.0497 64.0181 23.9006C63.6568 23.7481 63.3701 23.5128 63.158 23.1946C62.9492 22.8764 62.8465 22.4787 62.8498 22.0014V14.5341ZM69.6248 19.5256V24H67.8251V13.8182H69.585V17.6612H69.6745C69.8535 17.2304 70.1303 16.8906 70.5048 16.642C70.8826 16.3902 71.3632 16.2642 71.9466 16.2642C72.4769 16.2642 72.9392 16.3752 73.3336 16.5973C73.728 16.8194 74.033 17.1442 74.2484 17.5717C74.4672 17.9993 74.5765 18.5213 74.5765 19.1378V24H72.7768V19.4162C72.7768 18.9025 72.6442 18.5031 72.3791 18.218C72.1172 17.9297 71.7493 17.7855 71.2754 17.7855C70.9572 17.7855 70.6722 17.8551 70.4203 17.9943C70.1717 18.1302 69.9761 18.3274 69.8336 18.5859C69.6944 18.8445 69.6248 19.1577 69.6248 19.5256ZM79.742 24.1491C78.9963 24.1491 78.35 23.9851 77.8031 23.657C77.2562 23.3288 76.832 22.8698 76.5304 22.2798C76.2321 21.6899 76.0829 21.0005 76.0829 20.2116C76.0829 19.4228 76.2321 18.7318 76.5304 18.1385C76.832 17.5452 77.2562 17.0845 77.8031 16.7564C78.35 16.4283 78.9963 16.2642 79.742 16.2642C80.4877 16.2642 81.1341 16.4283 81.6809 16.7564C82.2278 17.0845 82.6504 17.5452 82.9487 18.1385C83.2503 18.7318 83.4011 19.4228 83.4011 20.2116C83.4011 21.0005 83.2503 21.6899 82.9487 22.2798C82.6504 22.8698 82.2278 23.3288 81.6809 23.657C81.1341 23.9851 80.4877 24.1491 79.742 24.1491ZM79.752 22.7074C80.1563 22.7074 80.4944 22.5964 80.7662 22.3743C81.0379 22.1489 81.2401 21.8473 81.3727 21.4695C81.5086 21.0916 81.5765 20.6707 81.5765 20.2067C81.5765 19.7393 81.5086 19.3168 81.3727 18.9389C81.2401 18.5578 81.0379 18.2545 80.7662 18.0291C80.4944 17.8037 80.1563 17.6911 79.752 17.6911C79.3377 17.6911 78.993 17.8037 78.7179 18.0291C78.4461 18.2545 78.2422 18.5578 78.1064 18.9389C77.9738 19.3168 77.9075 19.7393 77.9075 20.2067C77.9075 20.6707 77.9738 21.0916 78.1064 21.4695C78.2422 21.8473 78.4461 22.1489 78.7179 22.3743C78.993 22.5964 79.3377 22.7074 79.752 22.7074ZM86.7283 13.8182V24H84.9286V13.8182H86.7283ZM91.9597 24.1491C91.1941 24.1491 90.5328 23.9901 89.976 23.6719C89.4225 23.3504 88.9966 22.8963 88.6983 22.3097C88.4 21.7197 88.2509 21.0253 88.2509 20.2266C88.2509 19.4411 88.4 18.7517 88.6983 18.1584C88.9999 17.5618 89.4209 17.0978 89.9611 16.7663C90.5014 16.4316 91.1361 16.2642 91.8652 16.2642C92.3359 16.2642 92.78 16.3404 93.1976 16.4929C93.6185 16.642 93.9898 16.8741 94.3113 17.1889C94.6361 17.5038 94.8913 17.9048 95.0769 18.392C95.2625 18.8759 95.3553 19.4527 95.3553 20.1222V20.674H89.0961V19.4609H93.6301C93.6268 19.1162 93.5523 18.8097 93.4064 18.5412C93.2606 18.2694 93.0568 18.0556 92.7949 17.8999C92.5364 17.7441 92.2348 17.6662 91.8901 17.6662C91.5222 17.6662 91.199 17.7557 90.9206 17.9347C90.6422 18.1103 90.4251 18.3423 90.2694 18.6307C90.1169 18.9157 90.039 19.2289 90.0357 19.5703V20.6293C90.0357 21.0734 90.1169 21.4545 90.2793 21.7727C90.4417 22.0876 90.6687 22.3295 90.9604 22.4986C91.2521 22.6643 91.5935 22.7472 91.9846 22.7472C92.2464 22.7472 92.4834 22.7107 92.6955 22.6378C92.9076 22.5616 93.0916 22.4505 93.2473 22.3047C93.4031 22.1589 93.5208 21.9782 93.6003 21.7628L95.2807 21.9517C95.1747 22.3958 94.9725 22.7836 94.6742 23.1151C94.3792 23.4432 94.0014 23.6984 93.5407 23.8807C93.08 24.0597 92.553 24.1491 91.9597 24.1491ZM102.913 18.3821L101.273 18.5611C101.226 18.3954 101.145 18.2396 101.029 18.0938C100.916 17.9479 100.764 17.8303 100.572 17.7408C100.379 17.6513 100.144 17.6065 99.8658 17.6065C99.4912 17.6065 99.1764 17.6877 98.9212 17.8501C98.6693 18.0125 98.545 18.223 98.5483 18.4815C98.545 18.7036 98.6262 18.8842 98.7919 19.0234C98.9609 19.1626 99.2393 19.277 99.6271 19.3665L100.93 19.6449C101.652 19.8007 102.189 20.0476 102.54 20.3857C102.895 20.7237 103.074 21.1662 103.077 21.7131C103.074 22.1937 102.933 22.6179 102.655 22.9858C102.38 23.3504 101.997 23.6354 101.506 23.8409C101.016 24.0464 100.452 24.1491 99.8161 24.1491C98.8814 24.1491 98.129 23.9536 97.5589 23.5625C96.9889 23.1681 96.6491 22.6196 96.5398 21.9169L98.2947 21.7479C98.3743 22.0926 98.5433 22.3527 98.8018 22.5284C99.0604 22.7041 99.3968 22.7919 99.8111 22.7919C100.239 22.7919 100.582 22.7041 100.84 22.5284C101.102 22.3527 101.233 22.1357 101.233 21.8771C101.233 21.6584 101.148 21.4777 100.979 21.3352C100.814 21.1927 100.555 21.0833 100.204 21.0071L98.9013 20.7337C98.1688 20.5812 97.6269 20.3243 97.2756 19.9631C96.9242 19.5985 96.7502 19.1378 96.7536 18.581C96.7502 18.1103 96.8778 17.7027 97.1364 17.358C97.3982 17.0099 97.7611 16.7415 98.2251 16.5526C98.6925 16.3603 99.2311 16.2642 99.8409 16.2642C100.736 16.2642 101.44 16.4548 101.954 16.8359C102.471 17.2171 102.791 17.7325 102.913 18.3821Z" fill="black"/>
<path d="M29.5552 22.7334L20.8412 7.64043C20.2482 6.61322 19.186 6 18 6C16.8138 6 15.7519 6.61322 15.1588 7.64043L6.4448 22.7334C5.85173 23.7606 5.85173 24.9871 6.4448 26.0143C7.0379 27.0413 8.10009 27.6545 9.28607 27.6545H26.7139C27.9001 27.6545 28.9621 27.0413 29.5552 26.0143C30.1483 24.9871 30.1483 23.7606 29.5552 22.7334ZM28.7435 25.5455C28.32 26.2792 27.5612 26.7172 26.7139 26.7172H9.28607C8.4388 26.7172 7.68023 26.2792 7.25671 25.5455C6.83297 24.8118 6.83297 23.9359 7.25671 23.2021L15.9706 8.10899C16.3942 7.37531 17.1528 6.93731 18 6.93731C18.8472 6.93731 19.6058 7.37531 20.0295 8.10899L28.7435 23.2021C29.167 23.9359 29.167 24.8118 28.7435 25.5455Z" fill="#644EFF"/>
<path d="M19.209 8.57265C18.9566 8.13592 18.5049 7.87515 18.0003 7.87515C17.4954 7.87515 17.0434 8.13592 16.7912 8.57284L16.772 8.60612C16.6427 8.83027 16.7195 9.11682 16.9438 9.24629C17.1679 9.37557 17.4544 9.29883 17.5839 9.07454L17.6031 9.0414C17.7122 8.85226 17.8794 8.81251 18.0003 8.81251C18.1211 8.81251 18.288 8.85226 18.3973 9.0414L27.1198 24.1499C27.2288 24.3387 27.1795 24.5039 27.1202 24.6077C27.0594 24.7122 26.9415 24.8371 26.723 24.8371H9.27717C9.05873 24.8371 8.94061 24.7122 8.88107 24.6093C8.82051 24.5039 8.77143 24.3387 8.88037 24.1499L15.4835 12.7128C15.613 12.4887 15.536 12.202 15.312 12.0727C15.0878 11.9432 14.801 12.02 14.6717 12.2441L8.06864 23.6812C7.70611 24.309 7.94742 24.8657 8.06883 25.0773C8.32167 25.5139 8.7734 25.7744 9.27712 25.7744H26.7228C27.2267 25.7744 27.6784 25.5139 27.932 25.0757C28.0527 24.8657 28.294 24.309 27.9315 23.6812L19.209 8.57265Z" fill="#644EFF"/>
<path d="M23.4148 23.8282C23.6737 23.8282 23.8836 23.6183 23.8836 23.3596V21.2777C23.8836 21.0188 23.6737 20.809 23.4148 20.809H18.313C17.8942 20.809 17.5536 21.1497 17.5536 21.5699C17.5536 21.6044 17.545 21.6384 17.5287 21.6688C17.5124 21.6993 17.4889 21.7252 17.4601 21.7444C17.4314 21.7635 17.3984 21.7753 17.3641 21.7787C17.3297 21.782 17.2951 21.7769 17.2632 21.7637C17.2378 21.7531 17.2148 21.7376 17.1955 21.7181C17.161 21.6836 17.1213 21.6547 17.0779 21.6324L16.5607 21.3672C16.4273 21.2616 16.2633 21.2043 16.09 21.2043H15.3747C15.3423 21.0688 15.273 20.945 15.1744 20.8467C15.0312 20.702 14.84 20.6226 14.6363 20.6226H12.5763C12.3174 20.6226 12.1075 20.8322 12.1075 21.0911V23.3596C12.1075 23.6185 12.3174 23.8282 12.5763 23.8282H19.1953C19.4541 23.8282 19.6639 23.6185 19.6639 23.3596C19.6639 23.1007 19.4541 22.8909 19.1953 22.8909H13.0449V21.5599H14.4791C14.5593 21.8931 14.86 22.1416 15.2176 22.1416H16.0262C16.0441 22.1542 16.0627 22.1656 16.082 22.1755L16.5932 22.4375C16.8016 22.618 17.0681 22.7173 17.3438 22.7171C17.916 22.7171 18.3915 22.2959 18.4772 21.7465H22.9463V23.3596C22.9463 23.6184 23.1561 23.8282 23.4148 23.8282Z" fill="#644EFF"/>
<path d="M21.1762 22.909C20.9909 22.9624 20.8533 23.1289 20.838 23.3215C20.8224 23.5171 20.9328 23.7051 21.1115 23.7862C21.2873 23.8659 21.4997 23.8272 21.6365 23.6911C21.7929 23.535 21.8167 23.2829 21.6945 23.0996C21.5845 22.9313 21.3688 22.8537 21.1762 22.909ZM16.1913 11.0566C16.3874 11.0465 16.5592 10.9121 16.6167 10.7246C16.6729 10.5412 16.6066 10.3333 16.4537 10.2171C16.2909 10.0933 16.0622 10.0894 15.8956 10.2079C15.7204 10.3324 15.6534 10.5697 15.7359 10.7676C15.8097 10.9482 15.9963 11.0669 16.1913 11.0566ZM21.3926 16.8901C21.315 16.4679 20.9291 16.1784 20.51 16.2114L20.2885 15.6655C20.0396 15.0527 19.5152 14.6141 18.9044 14.4529C18.6134 14.3757 18.3089 14.3638 18.0128 14.418L17.0601 14.5938C16.9262 14.6185 16.7951 14.6567 16.6689 14.7077C15.9189 15.0095 15.3963 15.7386 15.3785 16.5701L15.3663 17.1591C15.3622 17.1602 15.3588 17.1619 15.3549 17.1631C15.3386 17.1681 15.3226 17.1737 15.3067 17.1798C15.2974 17.1833 15.2882 17.1869 15.2791 17.1908C15.2767 17.1917 15.2739 17.1927 15.2716 17.1937C15.2676 17.1956 15.2639 17.1976 15.2601 17.1994C14.9193 17.3532 14.7129 17.7242 14.7836 18.1078L15.0112 19.3432C15.0515 19.5618 15.1743 19.7515 15.3575 19.8777C15.4473 19.9399 15.5485 19.9838 15.6554 20.0066C15.7623 20.0294 15.8726 20.0308 15.98 20.0106L16.4087 19.9317L16.4656 20.2408C16.5072 20.4667 16.7042 20.6247 16.9259 20.6247C16.9542 20.6247 16.9827 20.6222 17.0114 20.6169C17.266 20.57 17.4342 20.3255 17.3874 20.0711L17.3304 19.762L19.6143 19.3412L19.6712 19.6503C19.7128 19.8762 19.91 20.0341 20.1315 20.0341C20.1597 20.0341 20.1883 20.0315 20.2171 20.0263C20.4716 19.9795 20.6399 19.7351 20.593 19.4805L20.536 19.1712L20.953 19.0946C21.4039 19.0114 21.7033 18.5769 21.6202 18.1257L21.3926 16.8901ZM16.316 16.59C16.325 16.1617 16.5806 15.7833 16.954 15.6051C17.0417 15.5633 17.1345 15.5333 17.2301 15.5158L17.6627 15.4359L18.1829 15.34C18.5036 15.2808 18.8478 15.3705 19.0976 15.5804C19.219 15.6824 19.321 15.808 19.39 15.9516C19.4226 16.0195 19.4493 16.0905 19.4777 16.1605C19.5073 16.2333 19.5368 16.3064 19.5665 16.3793L16.3076 16.9881L16.316 16.59ZM16.7 18.9248C16.6998 18.9248 16.6998 18.9248 16.6998 18.925H16.6994L15.9139 19.0696L15.726 18.0503L20.4893 17.1604L20.6794 18.1917L16.7 18.9248Z" fill="#644EFF"/>
</svg>
