<svg width="34" height="34" viewBox="0 0 34 34" fill="none" xmlns="http://www.w3.org/2000/svg">
<g clip-path="url(#clip0_10_191)">
<path d="M17.7658 19.9438C17.3287 19.9438 16.9745 20.2981 16.9745 20.7351C16.9741 22.7835 15.3133 24.4438 13.2649 24.4435C11.2165 24.4431 9.55619 22.7823 9.55656 20.7339C9.55692 18.6857 11.2173 17.0256 13.2655 17.0256C13.7026 17.0256 14.0569 16.6713 14.0569 16.2342C14.0569 15.7972 13.7026 15.4429 13.2655 15.4429C10.3435 15.4449 7.97528 17.8131 7.97327 20.7351C7.97327 23.6578 10.3425 26.0271 13.2652 26.0271C16.1879 26.0271 18.5571 23.6578 18.5571 20.7351C18.5571 20.2981 18.2029 19.9438 17.7658 19.9438Z" fill="white"/>
<path d="M24.0527 22.5552C23.9772 22.1247 23.5671 21.8369 23.1366 21.9124L21.4802 22.2028C21.3318 22.2288 21.1939 22.2966 21.0828 22.3983C20.9716 22.5 20.8917 22.6313 20.8526 22.7768C20.676 23.4323 20.4147 24.0619 20.0753 24.6498C19.9995 24.7806 19.9628 24.9304 19.9695 25.0815C19.9762 25.2325 20.026 25.3784 20.113 25.502L21.0797 26.8796C21.1452 26.9725 21.1757 27.0856 21.1659 27.1989C21.1561 27.3122 21.1066 27.4184 21.0261 27.4987L20.0327 28.4921C19.9525 28.5725 19.8465 28.6221 19.7333 28.632C19.6202 28.6419 19.5072 28.6115 19.4142 28.5463L18.0367 27.5796C17.9131 27.4926 17.7671 27.4428 17.6161 27.4361C17.4651 27.4294 17.3153 27.4661 17.1845 27.5419C16.5966 27.8814 15.9669 28.1427 15.3114 28.3192C15.1659 28.3583 15.0346 28.4382 14.9329 28.5493C14.8312 28.6605 14.7634 28.7984 14.7374 28.9468L14.4434 30.6013C14.4239 30.7132 14.3655 30.8146 14.2785 30.8877C14.1915 30.9608 14.0816 31.0008 13.968 31.0007H12.5624C12.4488 31.0008 12.3389 30.9608 12.2519 30.8877C12.1649 30.8146 12.1065 30.7132 12.087 30.6013L11.7966 28.9456C11.7706 28.7972 11.7028 28.6593 11.6011 28.5481C11.4994 28.437 11.3681 28.3571 11.2226 28.318C10.5669 28.1414 9.93709 27.8801 9.34897 27.5407C9.21816 27.4649 9.06837 27.4282 8.91734 27.4348C8.76631 27.4415 8.62036 27.4914 8.49676 27.5784L7.12165 28.5444C7.02871 28.61 6.91561 28.6405 6.80233 28.6307C6.68905 28.6209 6.58288 28.5714 6.50258 28.4909L5.50914 27.4974C5.42881 27.4172 5.37935 27.3112 5.36944 27.1981C5.35953 27.085 5.38981 26.972 5.45496 26.879L6.42162 25.5014C6.50865 25.3778 6.55846 25.2319 6.56515 25.0809C6.57184 24.9298 6.53513 24.78 6.45936 24.6492C6.11976 24.0614 5.85843 23.4317 5.68202 22.7762C5.6429 22.6307 5.56307 22.4994 5.45189 22.3977C5.34072 22.296 5.20283 22.2282 5.05442 22.2022L3.39869 21.9118C3.287 21.8923 3.18574 21.8341 3.11271 21.7474C3.03968 21.6607 2.99955 21.551 2.99937 21.4376V20.0321C2.99926 19.9185 3.03926 19.8085 3.11232 19.7215C3.18537 19.6345 3.28679 19.5761 3.39869 19.5566L5.05442 19.2663C5.20283 19.2403 5.34072 19.1724 5.45189 19.0707C5.56307 18.9691 5.6429 18.8378 5.68202 18.6923C5.85829 18.0361 6.11962 17.4058 6.45936 16.8174C6.53513 16.6866 6.57184 16.5368 6.56515 16.3858C6.55846 16.2347 6.50865 16.0888 6.42162 15.9652L5.45557 14.5919C5.39006 14.499 5.35951 14.3859 5.36931 14.2726C5.37912 14.1593 5.42864 14.0531 5.50914 13.9728L6.50319 12.9788C6.58345 12.8984 6.6895 12.849 6.80265 12.8392C6.91579 12.8294 7.02876 12.8599 7.12165 12.9252L8.49919 13.8919C8.62279 13.9789 8.76875 14.0287 8.91978 14.0354C9.07081 14.0421 9.22059 14.0054 9.35141 13.9296C9.93949 13.5901 10.5694 13.3288 11.2251 13.1523C11.3706 13.1131 11.5019 13.0333 11.6036 12.9221C11.7052 12.811 11.7731 12.6731 11.7991 12.5247L12.0894 10.8689C12.1649 10.4384 11.8771 10.0283 11.4466 9.9528C11.0161 9.87732 10.606 10.1651 10.5305 10.5956L10.3248 11.7705C9.87344 11.9195 9.4341 12.1027 9.01052 12.3183L8.03352 11.6329C7.21271 11.0553 6.09528 11.1527 5.38679 11.8636L4.3897 12.854C3.6795 13.5628 3.58241 14.6799 4.1596 15.5007L4.84502 16.4777C4.62933 16.9015 4.44619 17.341 4.29717 17.7926L3.12233 17.9983C2.1351 18.1717 1.41547 19.0297 1.41669 20.0321V21.4376C1.41541 22.4409 2.13638 23.2996 3.12477 23.472L4.29961 23.6783C4.44864 24.1296 4.63178 24.569 4.84746 24.9925L4.1596 25.9695C3.58259 26.7905 3.67992 27.9075 4.39031 28.6163L5.38435 29.6097C6.09309 30.3202 7.21034 30.4172 8.03108 29.8398L9.00504 29.1544C9.42864 29.37 9.86797 29.5531 10.3193 29.7022L10.525 30.8771C10.6984 31.8659 11.5585 32.5863 12.5624 32.5833H13.968C14.9715 32.5846 15.8302 31.8633 16.0023 30.8746L16.2087 29.6998C16.66 29.5507 17.0993 29.3676 17.5229 29.152L18.5005 29.8374C19.3214 30.4147 20.4386 30.3173 21.1473 29.6067L22.1413 28.6126C22.8517 27.9039 22.949 26.7868 22.372 25.9659L21.6872 24.9919C21.9028 24.5683 22.0859 24.129 22.235 23.6777L23.4099 23.4713C23.8404 23.3959 24.1282 22.9857 24.0527 22.5552Z" fill="white"/>
<path d="M31.098 8.59962L30.2702 8.45474C30.1668 8.15624 30.0448 7.86449 29.9049 7.58122L30.3919 6.89519C30.8936 6.18177 30.8091 5.21079 30.1917 4.59482L29.4076 3.80896C28.7913 3.19025 27.8189 3.1054 27.1048 3.60808L26.4163 4.0908C26.1331 3.95091 25.8413 3.82893 25.5428 3.72556L25.4004 2.90135C25.2505 2.04196 24.5038 1.41527 23.6314 1.41667H22.5242C21.6519 1.41558 20.9054 2.04256 20.7558 2.90196L20.6103 3.72983C20.3118 3.83319 20.0201 3.95517 19.7368 4.09506L19.0483 3.60808C18.3349 3.10637 17.3639 3.19092 16.748 3.80835L15.9652 4.59239C15.3465 5.20866 15.2616 6.1811 15.7643 6.89519L16.247 7.58366C16.1071 7.86691 15.9851 8.15865 15.8818 8.45718L15.0569 8.59962C14.1978 8.74948 13.5712 9.49584 13.5723 10.368V11.4752C13.5706 12.3478 14.1974 13.0949 15.0569 13.2448L15.8842 13.3897C15.9876 13.6882 16.1095 13.9799 16.2494 14.2632L15.7661 14.9517C15.2643 15.6648 15.3483 16.6356 15.9652 17.252L16.748 18.0348C17.3641 18.6526 18.3354 18.7372 19.049 18.2351L19.7393 17.7524C20.0225 17.8922 20.3143 18.0142 20.6128 18.1176L20.7583 18.9455C20.9081 19.8046 21.6545 20.4313 22.5266 20.4302H23.6339C24.5062 20.4302 25.252 19.8021 25.4004 18.9424L25.5453 18.1152C25.8438 18.0118 26.1355 17.8898 26.4188 17.75L27.1048 18.2357C27.8188 18.7386 28.7915 18.6538 29.4076 18.0348L30.191 17.2514C30.8081 16.6356 30.8928 15.6651 30.3919 14.9517L29.908 14.2607C30.0478 13.9775 30.1698 13.6857 30.2732 13.3872L31.1011 13.2417C31.9583 13.091 32.5834 12.3463 32.5833 11.4758V10.3686C32.5847 9.49602 31.9577 8.74924 31.098 8.59962ZM31.0006 11.4777C31.0007 11.5277 30.983 11.5761 30.9509 11.6144C30.9187 11.6527 30.874 11.6785 30.8247 11.6871L29.5196 11.9159C29.3712 11.942 29.2333 12.0098 29.1221 12.1115C29.011 12.2132 28.9311 12.3445 28.892 12.49C28.7567 12.9925 28.5563 13.4752 28.2961 13.926C28.2203 14.0568 28.1836 14.2065 28.1903 14.3576C28.197 14.5086 28.2468 14.6546 28.3338 14.7782L29.0953 15.8641C29.1242 15.9051 29.1376 15.9549 29.1332 16.0048C29.1289 16.0547 29.1071 16.1015 29.0716 16.1368L28.2888 16.9197C28.253 16.954 28.2063 16.9748 28.1569 16.9783C28.1074 16.9819 28.0582 16.968 28.0179 16.9391L26.9301 16.1782C26.8065 16.0912 26.6606 16.0414 26.5095 16.0347C26.3585 16.028 26.2087 16.0647 26.0779 16.1405C25.6272 16.4008 25.1445 16.6011 24.6419 16.7364C24.4967 16.776 24.3658 16.8562 24.2646 16.9676C24.1633 17.079 24.0959 17.2169 24.0703 17.3652L23.8414 18.6703C23.8328 18.7196 23.8071 18.7643 23.7688 18.7965C23.7305 18.8287 23.6821 18.8463 23.632 18.8463H22.5242C22.4741 18.8463 22.4257 18.8287 22.3874 18.7965C22.3491 18.7643 22.3234 18.7196 22.3148 18.6703L22.0853 17.3652C22.0593 17.2168 21.9914 17.0789 21.8897 16.9678C21.7881 16.8566 21.6567 16.7768 21.5112 16.7376C21.0085 16.6023 20.5256 16.4019 20.0747 16.1417C19.9438 16.0659 19.7941 16.0292 19.643 16.0359C19.492 16.0426 19.346 16.0924 19.2224 16.1794L18.1395 16.9391C18.0986 16.968 18.0487 16.9814 17.9988 16.977C17.9489 16.9727 17.9022 16.9509 17.8668 16.9154L17.084 16.1326C17.0485 16.0972 17.0267 16.0505 17.0224 16.0006C17.018 15.9507 17.0314 15.9008 17.0603 15.8599L17.8218 14.7739C17.9088 14.6503 17.9586 14.5043 17.9653 14.3533C17.972 14.2023 17.9353 14.0525 17.8595 13.9217C17.5992 13.471 17.3988 12.9883 17.2636 12.4857C17.2239 12.3406 17.1436 12.2098 17.0323 12.1087C16.9209 12.0076 16.783 11.9403 16.6348 11.9147L15.3297 11.6858C15.2804 11.6772 15.2357 11.6515 15.2035 11.6132C15.1713 11.5749 15.1537 11.5265 15.1537 11.4764L15.1543 10.3686C15.1543 10.3185 15.1719 10.2701 15.2041 10.2318C15.2363 10.1935 15.281 10.1678 15.3303 10.1592L16.6348 9.92968C16.7832 9.90367 16.9211 9.83583 17.0322 9.73415C17.1434 9.63246 17.2232 9.50115 17.2624 9.35565C17.3977 8.8531 17.598 8.37036 17.8583 7.91967C17.9341 7.78886 17.9708 7.63907 17.9641 7.48804C17.9574 7.33701 17.9076 7.19106 17.8206 7.06746L17.0609 5.9821C17.032 5.94114 17.0186 5.89131 17.023 5.84142C17.0273 5.79152 17.0491 5.74476 17.0846 5.70939L17.868 4.92597C17.9034 4.8905 17.9502 4.86866 18.0001 4.86432C18.05 4.85998 18.0998 4.8734 18.1407 4.90223L19.2261 5.66374C19.3497 5.75078 19.4957 5.80059 19.6467 5.80727C19.7977 5.81396 19.9475 5.77725 20.0783 5.70148C20.529 5.4412 21.0117 5.24086 21.5143 5.10554C21.6598 5.06643 21.7911 4.98659 21.8928 4.87542C21.9945 4.76424 22.0623 4.62635 22.0883 4.47795L22.3172 3.17284C22.3262 3.12441 22.3518 3.08063 22.3896 3.04898C22.4273 3.01733 22.4749 2.99979 22.5242 2.99936H23.6314C23.6815 2.99933 23.7299 3.01696 23.7682 3.04914C23.8065 3.08132 23.8322 3.12599 23.8408 3.17528L24.0697 4.48038C24.0957 4.62878 24.1636 4.76668 24.2652 4.87785C24.3669 4.98903 24.4982 5.06886 24.6437 5.10798C25.1463 5.24323 25.6291 5.44357 26.0797 5.70392C26.2105 5.7797 26.3603 5.81642 26.5113 5.80973C26.6624 5.80304 26.8083 5.75323 26.9319 5.66618L28.0179 4.90466C28.0589 4.87584 28.1087 4.86241 28.1586 4.86676C28.2085 4.8711 28.2552 4.89293 28.2906 4.9284L29.074 5.71183C29.1085 5.74734 29.1295 5.79378 29.1334 5.84313C29.1373 5.89247 29.1238 5.94163 29.0953 5.9821L28.3338 7.06989C28.2468 7.19349 28.197 7.33945 28.1903 7.49048C28.1836 7.64151 28.2203 7.79129 28.2961 7.92211C28.5563 8.37282 28.7567 8.85555 28.892 9.35809C28.9311 9.50359 29.011 9.6349 29.1221 9.73658C29.2333 9.83827 29.3712 9.9061 29.5196 9.93211L30.8247 10.161C30.874 10.1696 30.9187 10.1953 30.9509 10.2336C30.983 10.2719 31.0007 10.3204 31.0006 10.3704V11.4777Z" fill="white"/>
<path d="M23.0775 7.14172C20.9895 7.14172 19.2968 8.83446 19.2968 10.9225C19.2991 13.0096 20.9905 14.7009 23.0775 14.7033C25.1656 14.7033 26.8583 13.0106 26.8583 10.9225C26.8583 8.83446 25.1656 7.14172 23.0775 7.14172ZM23.0775 13.1206C21.8636 13.1206 20.8794 12.1365 20.8794 10.9225C20.8791 9.70792 21.8629 8.7227 23.0775 8.72136V8.72441C24.2915 8.72441 25.2756 9.70853 25.2756 10.9225C25.2756 12.1365 24.2915 13.1206 23.0775 13.1206Z" fill="white"/>
</g>
<defs>
<clipPath id="clip0_10_191">
<rect width="31.1667" height="31.1667" fill="white" transform="translate(1.41669 1.41667)"/>
</clipPath>
</defs>
</svg>
