<svg width="73" height="17" viewBox="0 0 73 17" fill="none" xmlns="http://www.w3.org/2000/svg">
<path d="M2.36648 3.81818L5.01634 11.8324H5.12074L7.76562 3.81818H9.79403L6.20455 14H3.92756L0.34304 3.81818H2.36648ZM11.0556 14V6.36364H12.8553V14H11.0556ZM11.9604 5.27983C11.6754 5.27983 11.4301 5.18537 11.2246 4.99645C11.0191 4.80421 10.9164 4.57386 10.9164 4.3054C10.9164 4.03362 11.0191 3.80327 11.2246 3.61435C11.4301 3.42211 11.6754 3.32599 11.9604 3.32599C12.2488 3.32599 12.494 3.42211 12.6962 3.61435C12.9017 3.80327 13.0044 4.03362 13.0044 4.3054C13.0044 4.57386 12.9017 4.80421 12.6962 4.99645C12.494 5.18537 12.2488 5.27983 11.9604 5.27983ZM18.0866 14.1491C17.321 14.1491 16.6598 13.9901 16.103 13.6719C15.5495 13.3504 15.1236 12.8963 14.8253 12.3097C14.527 11.7197 14.3778 11.0253 14.3778 10.2266C14.3778 9.44105 14.527 8.75166 14.8253 8.15838C15.1269 7.56179 15.5478 7.09777 16.0881 6.76633C16.6283 6.43158 17.263 6.2642 17.9922 6.2642C18.4628 6.2642 18.907 6.34044 19.3246 6.4929C19.7455 6.64205 20.1167 6.87405 20.4382 7.18892C20.763 7.50379 21.0182 7.90483 21.2038 8.39205C21.3894 8.87595 21.4822 9.45265 21.4822 10.1222V10.674H15.223V9.46094H19.7571C19.7538 9.11624 19.6792 8.80966 19.5334 8.54119C19.3875 8.26941 19.1837 8.05563 18.9219 7.89986C18.6634 7.74408 18.3617 7.66619 18.017 7.66619C17.6491 7.66619 17.326 7.75568 17.0476 7.93466C16.7692 8.11032 16.5521 8.34233 16.3963 8.63068C16.2438 8.91572 16.166 9.22893 16.1626 9.57031V10.6293C16.1626 11.0734 16.2438 11.4545 16.4062 11.7727C16.5687 12.0876 16.7957 12.3295 17.0874 12.4986C17.379 12.6643 17.7204 12.7472 18.1115 12.7472C18.3733 12.7472 18.6103 12.7107 18.8224 12.6378C19.0346 12.5616 19.2185 12.4505 19.3743 12.3047C19.5301 12.1589 19.6477 11.9782 19.7273 11.7628L21.4077 11.9517C21.3016 12.3958 21.0994 12.7836 20.8011 13.1151C20.5062 13.4432 20.1283 13.6984 19.6676 13.8807C19.2069 14.0597 18.6799 14.1491 18.0866 14.1491ZM24.5398 14L22.3821 6.36364H24.2166L25.5589 11.733H25.6286L27.0007 6.36364H28.8153L30.1875 11.7031H30.2621L31.5845 6.36364H33.424L31.2614 14H29.3871L27.9553 8.83949H27.8509L26.419 14H24.5398ZM39.5403 14H37.5716L41.1561 3.81818H43.4331L47.0225 14H45.0538L42.3343 5.90625H42.2548L39.5403 14ZM39.6049 10.0078H44.9743V11.4893H39.6049V10.0078ZM50.0838 3.81818V14H48.2841V3.81818H50.0838ZM53.7342 3.81818V14H51.9345V3.81818H53.7342Z" fill="white"/>
<path d="M66.5 2C62.9158 2 60 4.91578 60 8.5C60 12.0842 62.9158 15 66.5 15C70.0842 15 73 12.0842 73 8.5C73 4.91578 70.0842 2 66.5 2ZM68.508 8.88297L65.7996 11.5913C65.7494 11.6417 65.6897 11.6816 65.624 11.7088C65.5583 11.7361 65.4878 11.7501 65.4167 11.75C65.3455 11.7501 65.2751 11.7361 65.2093 11.7088C65.1436 11.6816 65.0839 11.6417 65.0337 11.5913C64.8219 11.3795 64.8219 11.0372 65.0337 10.8254L67.3591 8.5L65.0337 6.17462C64.8219 5.96284 64.8219 5.6205 65.0337 5.40872C65.2455 5.19693 65.5878 5.19693 65.7996 5.40872L68.508 8.11706C68.7198 8.32884 68.7198 8.67116 68.508 8.88297Z" fill="white"/>
</svg>
