<svg width="142" height="36" viewBox="0 0 142 36" fill="none" xmlns="http://www.w3.org/2000/svg">
<circle cx="18" cy="18" r="18" fill="#E9E3FF"/>
<circle cx="18" cy="18" r="17.5" stroke="#644EFF" stroke-opacity="0.17"/>
<path d="M8 24.9022C8.28225 24.9796 8.57829 24.9925 8.86622 24.94C9.15415 24.8876 9.42658 24.771 9.66336 24.599L10.2178 24.1831C10.4299 24.0308 10.6844 23.9489 10.9455 23.9489C11.2066 23.9489 11.4612 24.0308 11.6733 24.1831L12.2277 24.599C12.5608 24.8387 12.9609 24.9676 13.3713 24.9676C13.7817 24.9676 14.1817 24.8387 14.5148 24.599L15.0693 24.1831C15.2814 24.0308 15.5359 23.9489 15.797 23.9489C16.0581 23.9489 16.3126 24.0308 16.5247 24.1831L17.0792 24.599C17.4123 24.8387 17.8123 24.9676 18.2227 24.9676C18.6332 24.9676 19.0332 24.8387 19.3663 24.599L19.9208 24.1831C20.1328 24.0308 20.3874 23.9489 20.6485 23.9489C20.9096 23.9489 21.1641 24.0308 21.3762 24.1831L21.9307 24.599C22.2638 24.8387 22.6638 24.9676 23.0742 24.9676C23.4846 24.9676 23.8847 24.8387 24.2178 24.599L24.7722 24.1831C24.9843 24.0308 25.2388 23.9489 25.5 23.9489C25.7611 23.9489 26.0156 24.0308 26.2277 24.1831L26.8272 24.6336C27.1284 24.8581 27.4939 24.9796 27.8696 24.9802C28.1964 24.9798 28.5163 24.8864 28.792 24.7109V25.8763L28.6077 26.0606C28.4267 26.2325 28.1916 26.3361 27.9427 26.3537C27.6937 26.3713 27.4464 26.3019 27.243 26.1573L26.6435 25.7079C26.3104 25.4682 25.9104 25.3392 25.5 25.3392C25.0895 25.3392 24.6895 25.4682 24.3564 25.7079L23.8019 26.1237C23.5899 26.276 23.3353 26.358 23.0742 26.358C22.8131 26.358 22.5586 26.276 22.3465 26.1237L21.792 25.7079C21.4589 25.4682 21.0589 25.3392 20.6485 25.3392C20.2381 25.3392 19.838 25.4682 19.5049 25.7079L18.9505 26.1237C18.7384 26.276 18.4839 26.358 18.2227 26.358C17.9616 26.358 17.7071 26.276 17.495 26.1237L16.9406 25.7079C16.6074 25.4682 16.2074 25.3392 15.797 25.3392C15.3866 25.3392 14.9866 25.4682 14.6534 25.7079L14.099 26.1237C13.8869 26.276 13.6324 26.358 13.3713 26.358C13.1102 26.358 12.8556 26.276 12.6436 26.1237L12.0891 25.7079C11.756 25.4682 11.3559 25.3392 10.9455 25.3392C10.5351 25.3392 10.1351 25.4682 9.80198 25.7079L9.24752 26.1237C9.06913 26.2529 8.85963 26.3324 8.64044 26.3541C8.42125 26.3757 8.20024 26.3388 8 26.2471V24.9022ZM28.792 22.9831V23.7971L28.6077 23.9814C28.5167 24.0705 28.4094 24.1411 28.2916 24.1894C28.0914 23.9019 27.9432 23.5816 27.8536 23.243C28.1847 23.2468 28.5101 23.1567 28.792 22.9831ZM25.6732 13.5445C25.6738 14.2738 25.5797 15.0001 25.3932 15.7052C25.2111 15.5346 25.0139 15.3808 24.8041 15.2457C24.9214 14.6862 24.9804 14.1161 24.9802 13.5445C24.9802 10.8239 23.7624 8.69307 22.2079 8.69307C20.6533 8.69307 19.4356 10.8239 19.4356 13.5445C19.4356 15.8275 20.3019 17.7459 21.5495 18.2595C21.8504 18.4471 22.0684 18.7424 22.159 19.0853C20.2708 19.0423 18.7425 16.5753 18.7425 13.5445C18.7425 10.4874 20.2971 8 22.2079 8C24.1187 8 25.6732 10.4874 25.6732 13.5445ZM20.3196 15.2426C20.192 14.6856 20.1279 14.1159 20.1287 13.5445C20.1241 12.7774 20.2411 12.0143 20.4752 11.2838C20.7106 12.014 20.8276 12.7773 20.8217 13.5445C20.8223 14.0509 20.7725 14.5561 20.6731 15.0527C20.5934 15.0939 20.5113 15.1289 20.434 15.175L20.3196 15.2426ZM20.8647 10.4032C21.2303 9.77391 21.7009 9.38613 22.2079 9.38613C23.3348 9.38613 24.2871 11.2903 24.2871 13.5445C24.2881 14.0012 24.2485 14.4571 24.1689 14.9068C23.3006 14.5412 22.3333 14.4844 21.4282 14.746C21.4855 14.3481 21.5144 13.9466 21.5148 13.5445C21.5309 12.4624 21.309 11.39 20.8647 10.4032ZM10.4257 17.7029C9.29881 17.7029 8.34653 15.797 8.34653 13.5445C8.34653 11.2921 9.29881 9.38613 10.4257 9.38613H15.6518C14.9315 10.6523 14.5628 12.088 14.5841 13.5445C14.5628 15.0011 14.9315 16.4368 15.6518 17.7029H10.4257ZM15.2772 13.5445C15.2772 10.4874 16.8318 8 18.7425 8H20.3117C18.9706 9.03614 18.0495 11.1302 18.0495 13.5445C18.0495 15.9588 18.9706 18.0529 20.3117 19.0891H18.7425C16.8318 19.0891 15.2772 16.6017 15.2772 13.5445ZM22.3167 21.545C22.6989 20.9078 22.9009 20.1787 22.901 19.4356C22.8991 19.0261 22.7767 18.6261 22.5492 18.2856C22.3216 17.9451 21.9989 17.6791 21.6212 17.5207C21.0912 17.1248 20.7046 16.567 20.5199 15.9318L20.7909 15.7693C21.3148 15.4549 21.9127 15.2853 22.5236 15.2775C23.1346 15.2698 23.7366 15.4244 24.2683 15.7254C24.7999 16.0264 25.2422 16.4631 25.5499 16.9909C25.8576 17.5187 26.0197 18.1188 26.0198 18.7297C26.0199 19.7079 26.2857 20.6676 26.7887 21.5065C26.9658 21.8014 27.0594 22.139 27.0594 22.483C27.0608 23.0843 27.2086 23.6761 27.4901 24.2074C27.4019 24.1765 27.3187 24.133 27.243 24.0781L26.6435 23.6287C26.3104 23.389 25.9104 23.26 25.5 23.26C25.0895 23.26 24.6895 23.389 24.3564 23.6287L23.8019 24.0445C23.5899 24.1968 23.3353 24.2788 23.0742 24.2788C22.8131 24.2788 22.5586 24.1968 22.3465 24.0445L21.8125 23.6439C21.8433 23.4942 21.8597 23.3418 21.8614 23.1889C21.8615 22.6098 22.0189 22.0416 22.3167 21.545ZM9.66336 22.8663L10.2178 22.4505C10.4299 22.2981 10.6844 22.2162 10.9455 22.2162C11.2066 22.2162 11.4612 22.2981 11.6733 22.4505L12.2277 22.8663C12.5608 23.106 12.9609 23.235 13.3713 23.235C13.7817 23.235 14.1817 23.106 14.5148 22.8663L15.0693 22.4505C15.2814 22.2981 15.5359 22.2162 15.797 22.2162C16.0581 22.2162 16.3126 22.2981 16.5247 22.4505L17.0792 22.8663C17.4123 23.106 17.8123 23.235 18.2227 23.235C18.6332 23.235 19.0332 23.106 19.3663 22.8663L19.9208 22.4505C20.1145 22.3121 20.3438 22.232 20.5815 22.2197C20.8193 22.2075 21.0556 22.2635 21.2625 22.3812C21.203 22.6464 21.1714 22.9171 21.1683 23.1889C21.1683 23.2364 21.1614 23.2835 21.1575 23.3307C20.8773 23.2543 20.5835 23.2414 20.2976 23.2929C20.0117 23.3445 19.7409 23.4592 19.5049 23.6287L18.9505 24.0445C18.7384 24.1968 18.4839 24.2788 18.2227 24.2788C17.9616 24.2788 17.7071 24.1968 17.495 24.0445L16.9406 23.6287C16.6074 23.389 16.2074 23.26 15.797 23.26C15.3866 23.26 14.9866 23.389 14.6534 23.6287L14.099 24.0445C13.8869 24.1968 13.6324 24.2788 13.3713 24.2788C13.1102 24.2788 12.8556 24.1968 12.6436 24.0445L12.0891 23.6287C11.756 23.389 11.3559 23.26 10.9455 23.26C10.5351 23.26 10.1351 23.389 9.80198 23.6287L9.24752 24.0445C9.06919 24.1738 8.8597 24.2534 8.6405 24.2752C8.4213 24.2969 8.20025 24.26 8 24.1682V23.1754C8.2826 23.2528 8.57906 23.2652 8.86714 23.2117C9.15522 23.1581 9.42743 23.0401 9.66336 22.8663ZM28.6077 27.7933C28.4266 27.965 28.1915 28.0684 27.9427 28.0861C27.6938 28.1037 27.4465 28.0344 27.243 27.89L26.6435 27.4405C26.3104 27.2008 25.9104 27.0719 25.5 27.0719C25.0895 27.0719 24.6895 27.2008 24.3564 27.4405L23.8019 27.8564C23.5899 28.0087 23.3353 28.0906 23.0742 28.0906C22.8131 28.0906 22.5586 28.0087 22.3465 27.8564L21.792 27.4405C21.4589 27.2008 21.0589 27.0719 20.6485 27.0719C20.2381 27.0719 19.838 27.2008 19.5049 27.4405L18.9505 27.8564C18.7384 28.0087 18.4839 28.0906 18.2227 28.0906C17.9616 28.0906 17.7071 28.0087 17.495 27.8564L16.9406 27.4405C16.6074 27.2008 16.2074 27.0719 15.797 27.0719C15.3866 27.0719 14.9866 27.2008 14.6534 27.4405L14.099 27.8564C13.8869 28.0087 13.6324 28.0906 13.3713 28.0906C13.1102 28.0906 12.8556 28.0087 12.6436 27.8564L12.0891 27.4405C11.756 27.2008 11.3559 27.0719 10.9455 27.0719C10.5351 27.0719 10.1351 27.2008 9.80198 27.4405L9.24752 27.8564C9.06952 27.9863 8.86011 28.0665 8.64083 28.0886C8.42156 28.1107 8.20036 28.074 8 27.9822V26.9814C8.28224 27.0589 8.5783 27.0719 8.86625 27.0194C9.15419 26.9669 9.42663 26.8503 9.66336 26.6782L10.2178 26.2623C10.4299 26.11 10.6844 26.0281 10.9455 26.0281C11.2066 26.0281 11.4612 26.11 11.6733 26.2623L12.2277 26.6782C12.5608 26.9179 12.9609 27.0468 13.3713 27.0468C13.7817 27.0468 14.1817 26.9179 14.5148 26.6782L15.0693 26.2623C15.2814 26.11 15.5359 26.0281 15.797 26.0281C16.0581 26.0281 16.3126 26.11 16.5247 26.2623L17.0792 26.6782C17.4123 26.9179 17.8123 27.0468 18.2227 27.0468C18.6332 27.0468 19.0332 26.9179 19.3663 26.6782L19.9208 26.2623C20.1328 26.11 20.3874 26.0281 20.6485 26.0281C20.9096 26.0281 21.1641 26.11 21.3762 26.2623L21.9307 26.6782C22.2638 26.9179 22.6638 27.0468 23.0742 27.0468C23.4846 27.0468 23.8847 26.9179 24.2178 26.6782L24.7722 26.2623C24.9843 26.11 25.2388 26.0281 25.5 26.0281C25.7611 26.0281 26.0156 26.11 26.2277 26.2623L26.8272 26.7128C27.1284 26.9373 27.4939 27.0588 27.8696 27.0594C28.1964 27.059 28.5163 26.9656 28.792 26.7901V27.609L28.6077 27.7933Z" fill="#644EFF"/>
<path d="M47.147 24L44.2734 13.8182H46.2571L48.0916 21.3004H48.1861L50.1449 13.8182H51.9496L53.9134 21.3054H54.0028L55.8374 13.8182H57.821L54.9474 24H53.1278L51.0895 16.8558H51.0099L48.9666 24H47.147ZM60.4386 24.1541C59.9547 24.1541 59.5188 24.0679 59.131 23.8956C58.7466 23.7199 58.4416 23.4614 58.2163 23.12C57.9942 22.7786 57.8832 22.3577 57.8832 21.8572C57.8832 21.4264 57.9627 21.0701 58.1218 20.7884C58.2809 20.5066 58.498 20.2812 58.7731 20.1122C59.0482 19.9432 59.3581 19.8156 59.7028 19.7294C60.0508 19.6399 60.4104 19.5753 60.7816 19.5355C61.229 19.4891 61.592 19.4477 61.8704 19.4112C62.1488 19.3714 62.351 19.3118 62.4769 19.2322C62.6062 19.1494 62.6708 19.0218 62.6708 18.8494V18.8196C62.6708 18.4451 62.5598 18.1551 62.3377 17.9496C62.1156 17.7441 61.7958 17.6413 61.3782 17.6413C60.9374 17.6413 60.5877 17.7375 60.3292 17.9297C60.074 18.1219 59.9016 18.349 59.8121 18.6108L58.1317 18.3722C58.2643 17.9081 58.4831 17.5204 58.788 17.2088C59.0929 16.8939 59.4658 16.6586 59.9066 16.5028C60.3474 16.3438 60.8346 16.2642 61.3683 16.2642C61.7362 16.2642 62.1024 16.3073 62.467 16.3935C62.8316 16.4796 63.1647 16.6222 63.4663 16.821C63.7679 17.0166 64.0098 17.2834 64.1921 17.6214C64.3777 17.9595 64.4705 18.3821 64.4705 18.8892V24H62.7404V22.951H62.6808C62.5714 23.1631 62.4173 23.362 62.2184 23.5476C62.0228 23.7299 61.7759 23.8774 61.4776 23.9901C61.1826 24.0994 60.8363 24.1541 60.4386 24.1541ZM60.9059 22.8317C61.2672 22.8317 61.5804 22.7604 61.8455 22.6179C62.1107 22.4721 62.3145 22.2798 62.457 22.0412C62.6029 21.8026 62.6758 21.5424 62.6758 21.2607V20.3608C62.6194 20.4072 62.5233 20.4503 62.3874 20.4901C62.2549 20.5298 62.1057 20.5646 61.94 20.5945C61.7743 20.6243 61.6102 20.6508 61.4478 20.674C61.2854 20.6972 61.1445 20.7171 61.0252 20.7337C60.7567 20.7701 60.5165 20.8298 60.3043 20.9126C60.0922 20.9955 59.9248 21.1115 59.8022 21.2607C59.6796 21.4065 59.6183 21.5954 59.6183 21.8274C59.6183 22.1589 59.7392 22.4091 59.9812 22.5781C60.2231 22.7472 60.5314 22.8317 60.9059 22.8317ZM70.0934 16.3636V17.7557H65.7035V16.3636H70.0934ZM66.7873 14.5341H68.587V21.7031C68.587 21.9451 68.6235 22.1307 68.6964 22.2599C68.7726 22.3859 68.872 22.4721 68.9947 22.5185C69.1173 22.5649 69.2532 22.5881 69.4023 22.5881C69.515 22.5881 69.6178 22.5798 69.7106 22.5632C69.8067 22.5466 69.8796 22.5317 69.9293 22.5185L70.2326 23.9254C70.1365 23.9586 69.9989 23.995 69.82 24.0348C69.6443 24.0746 69.4289 24.0978 69.1737 24.1044C68.7229 24.1177 68.3169 24.0497 67.9556 23.9006C67.5943 23.7481 67.3076 23.5128 67.0955 23.1946C66.8867 22.8764 66.784 22.4787 66.7873 22.0014V14.5341ZM74.8972 24.1491C74.1316 24.1491 73.4703 23.9901 72.9135 23.6719C72.36 23.3504 71.9341 22.8963 71.6358 22.3097C71.3375 21.7197 71.1884 21.0253 71.1884 20.2266C71.1884 19.4411 71.3375 18.7517 71.6358 18.1584C71.9374 17.5618 72.3584 17.0978 72.8986 16.7663C73.4389 16.4316 74.0736 16.2642 74.8027 16.2642C75.2734 16.2642 75.7175 16.3404 76.1351 16.4929C76.556 16.642 76.9273 16.8741 77.2488 17.1889C77.5736 17.5038 77.8288 17.9048 78.0144 18.392C78.2 18.8759 78.2928 19.4527 78.2928 20.1222V20.674H72.0336V19.4609H76.5676C76.5643 19.1162 76.4898 18.8097 76.3439 18.5412C76.1981 18.2694 75.9943 18.0556 75.7324 17.8999C75.4739 17.7441 75.1723 17.6662 74.8276 17.6662C74.4597 17.6662 74.1365 17.7557 73.8581 17.9347C73.5797 18.1103 73.3626 18.3423 73.2069 18.6307C73.0544 18.9157 72.9765 19.2289 72.9732 19.5703V20.6293C72.9732 21.0734 73.0544 21.4545 73.2168 21.7727C73.3792 22.0876 73.6062 22.3295 73.8979 22.4986C74.1896 22.6643 74.531 22.7472 74.9221 22.7472C75.1839 22.7472 75.4209 22.7107 75.633 22.6378C75.8451 22.5616 76.0291 22.4505 76.1848 22.3047C76.3406 22.1589 76.4583 21.9782 76.5378 21.7628L78.2182 21.9517C78.1122 22.3958 77.91 22.7836 77.6117 23.1151C77.3167 23.4432 76.9389 23.6984 76.4782 23.8807C76.0175 24.0597 75.4905 24.1491 74.8972 24.1491ZM79.8153 24V16.3636H81.5604V17.6364H81.6399C81.7791 17.1955 82.0178 16.8558 82.3558 16.6172C82.6972 16.3752 83.0866 16.2543 83.5241 16.2543C83.6236 16.2543 83.7346 16.2592 83.8572 16.2692C83.9832 16.2758 84.0876 16.2874 84.1705 16.304V17.9595C84.0942 17.933 83.9732 17.9098 83.8075 17.8899C83.6451 17.8667 83.4877 17.8551 83.3352 17.8551C83.0071 17.8551 82.7121 17.9264 82.4503 18.0689C82.1918 18.2081 81.9879 18.402 81.8388 18.6506C81.6896 18.8991 81.6151 19.1858 81.6151 19.5107V24H79.8153ZM89.6529 19.0185V20.5H85.0691V19.0185H89.6529ZM93.3455 13.8182V24H91.5458V13.8182H93.3455ZM98.5272 24.1491C97.7814 24.1491 97.1351 23.9851 96.5882 23.657C96.0414 23.3288 95.6171 22.8698 95.3155 22.2798C95.0172 21.6899 94.8681 21.0005 94.8681 20.2116C94.8681 19.4228 95.0172 18.7318 95.3155 18.1385C95.6171 17.5452 96.0414 17.0845 96.5882 16.7564C97.1351 16.4283 97.7814 16.2642 98.5272 16.2642C99.2729 16.2642 99.9192 16.4283 100.466 16.7564C101.013 17.0845 101.436 17.5452 101.734 18.1385C102.035 18.7318 102.186 19.4228 102.186 20.2116C102.186 21.0005 102.035 21.6899 101.734 22.2798C101.436 22.8698 101.013 23.3288 100.466 23.657C99.9192 23.9851 99.2729 24.1491 98.5272 24.1491ZM98.5371 22.7074C98.9415 22.7074 99.2795 22.5964 99.5513 22.3743C99.8231 22.1489 100.025 21.8473 100.158 21.4695C100.294 21.0916 100.362 20.6707 100.362 20.2067C100.362 19.7393 100.294 19.3168 100.158 18.9389C100.025 18.5578 99.8231 18.2545 99.5513 18.0291C99.2795 17.8037 98.9415 17.6911 98.5371 17.6911C98.1228 17.6911 97.7781 17.8037 97.503 18.0291C97.2312 18.2545 97.0274 18.5578 96.8915 18.9389C96.7589 19.3168 96.6926 19.7393 96.6926 20.2067C96.6926 20.6707 96.7589 21.0916 96.8915 21.4695C97.0274 21.8473 97.2312 22.1489 97.503 22.3743C97.7781 22.5964 98.1228 22.7074 98.5371 22.7074ZM107.035 27.0227C106.388 27.0227 105.833 26.9349 105.369 26.7592C104.905 26.5869 104.532 26.3549 104.251 26.0632C103.969 25.7715 103.773 25.4484 103.664 25.0938L105.285 24.701C105.358 24.8501 105.464 24.9976 105.603 25.1435C105.742 25.2926 105.929 25.4152 106.165 25.5114C106.403 25.6108 106.703 25.6605 107.065 25.6605C107.575 25.6605 107.998 25.5362 108.332 25.2876C108.667 25.0424 108.835 24.638 108.835 24.0746V22.6278H108.745C108.652 22.8134 108.516 23.004 108.337 23.1996C108.162 23.3951 107.928 23.5592 107.636 23.6918C107.348 23.8243 106.985 23.8906 106.548 23.8906C105.961 23.8906 105.429 23.7531 104.952 23.478C104.478 23.1996 104.1 22.7853 103.818 22.2351C103.54 21.6816 103.401 20.9889 103.401 20.157C103.401 19.3184 103.54 18.6108 103.818 18.0341C104.1 17.4541 104.479 17.0149 104.957 16.7166C105.434 16.415 105.966 16.2642 106.553 16.2642C107 16.2642 107.368 16.3404 107.656 16.4929C107.948 16.642 108.18 16.8227 108.352 17.0348C108.525 17.2436 108.656 17.4408 108.745 17.6264H108.844V16.3636H110.619V24.1243C110.619 24.7772 110.464 25.3175 110.152 25.745C109.84 26.1726 109.415 26.4924 108.874 26.7045C108.334 26.9167 107.721 27.0227 107.035 27.0227ZM107.05 22.4787C107.431 22.4787 107.756 22.3859 108.024 22.2003C108.293 22.0147 108.496 21.7479 108.636 21.3999C108.775 21.0518 108.844 20.6342 108.844 20.147C108.844 19.6664 108.775 19.2455 108.636 18.8842C108.5 18.523 108.298 18.2429 108.029 18.044C107.764 17.8419 107.438 17.7408 107.05 17.7408C106.649 17.7408 106.314 17.8452 106.045 18.054C105.777 18.2628 105.575 18.5495 105.439 18.9141C105.303 19.2753 105.235 19.6863 105.235 20.147C105.235 20.6143 105.303 21.0237 105.439 21.375C105.578 21.723 105.782 21.9948 106.05 22.1903C106.322 22.3826 106.655 22.4787 107.05 22.4787ZM115.785 27.0227C115.138 27.0227 114.583 26.9349 114.119 26.7592C113.655 26.5869 113.282 26.3549 113.001 26.0632C112.719 25.7715 112.523 25.4484 112.414 25.0938L114.035 24.701C114.108 24.8501 114.214 24.9976 114.353 25.1435C114.492 25.2926 114.679 25.4152 114.915 25.5114C115.153 25.6108 115.453 25.6605 115.815 25.6605C116.325 25.6605 116.748 25.5362 117.082 25.2876C117.417 25.0424 117.585 24.638 117.585 24.0746V22.6278H117.495C117.402 22.8134 117.266 23.004 117.087 23.1996C116.912 23.3951 116.678 23.5592 116.386 23.6918C116.098 23.8243 115.735 23.8906 115.298 23.8906C114.711 23.8906 114.179 23.7531 113.702 23.478C113.228 23.1996 112.85 22.7853 112.568 22.2351C112.29 21.6816 112.151 20.9889 112.151 20.157C112.151 19.3184 112.29 18.6108 112.568 18.0341C112.85 17.4541 113.229 17.0149 113.707 16.7166C114.184 16.415 114.716 16.2642 115.303 16.2642C115.75 16.2642 116.118 16.3404 116.406 16.4929C116.698 16.642 116.93 16.8227 117.102 17.0348C117.275 17.2436 117.406 17.4408 117.495 17.6264H117.594V16.3636H119.369V24.1243C119.369 24.7772 119.214 25.3175 118.902 25.745C118.59 26.1726 118.165 26.4924 117.624 26.7045C117.084 26.9167 116.471 27.0227 115.785 27.0227ZM115.8 22.4787C116.181 22.4787 116.506 22.3859 116.774 22.2003C117.043 22.0147 117.246 21.7479 117.386 21.3999C117.525 21.0518 117.594 20.6342 117.594 20.147C117.594 19.6664 117.525 19.2455 117.386 18.8842C117.25 18.523 117.048 18.2429 116.779 18.044C116.514 17.8419 116.188 17.7408 115.8 17.7408C115.399 17.7408 115.064 17.8452 114.795 18.054C114.527 18.2628 114.325 18.5495 114.189 18.9141C114.053 19.2753 113.985 19.6863 113.985 20.147C113.985 20.6143 114.053 21.0237 114.189 21.375C114.328 21.723 114.532 21.9948 114.8 22.1903C115.072 22.3826 115.405 22.4787 115.8 22.4787ZM121.214 24V16.3636H123.013V24H121.214ZM122.119 15.2798C121.834 15.2798 121.588 15.1854 121.383 14.9964C121.177 14.8042 121.075 14.5739 121.075 14.3054C121.075 14.0336 121.177 13.8033 121.383 13.6143C121.588 13.4221 121.834 13.326 122.119 13.326C122.407 13.326 122.652 13.4221 122.854 13.6143C123.06 13.8033 123.163 14.0336 123.163 14.3054C123.163 14.5739 123.06 14.8042 122.854 14.9964C122.652 15.1854 122.407 15.2798 122.119 15.2798ZM126.664 19.5256V24H124.864V16.3636H126.584V17.6612H126.674C126.849 17.2337 127.13 16.8939 127.514 16.642C127.902 16.3902 128.381 16.2642 128.951 16.2642C129.478 16.2642 129.937 16.3769 130.328 16.6023C130.722 16.8277 131.027 17.1541 131.243 17.5817C131.461 18.0092 131.569 18.5279 131.566 19.1378V24H129.766V19.4162C129.766 18.9058 129.634 18.5064 129.368 18.218C129.107 17.9297 128.744 17.7855 128.28 17.7855C127.965 17.7855 127.685 17.8551 127.439 17.9943C127.198 18.1302 127.007 18.3274 126.868 18.5859C126.732 18.8445 126.664 19.1577 126.664 19.5256ZM136.716 27.0227C136.07 27.0227 135.515 26.9349 135.051 26.7592C134.587 26.5869 134.214 26.3549 133.932 26.0632C133.651 25.7715 133.455 25.4484 133.346 25.0938L134.966 24.701C135.039 24.8501 135.145 24.9976 135.285 25.1435C135.424 25.2926 135.611 25.4152 135.846 25.5114C136.085 25.6108 136.385 25.6605 136.746 25.6605C137.257 25.6605 137.679 25.5362 138.014 25.2876C138.349 25.0424 138.516 24.638 138.516 24.0746V22.6278H138.427C138.334 22.8134 138.198 23.004 138.019 23.1996C137.843 23.3951 137.61 23.5592 137.318 23.6918C137.03 23.8243 136.667 23.8906 136.229 23.8906C135.643 23.8906 135.111 23.7531 134.633 23.478C134.159 23.1996 133.782 22.7853 133.5 22.2351C133.221 21.6816 133.082 20.9889 133.082 20.157C133.082 19.3184 133.221 18.6108 133.5 18.0341C133.782 17.4541 134.161 17.0149 134.638 16.7166C135.116 16.415 135.648 16.2642 136.234 16.2642C136.682 16.2642 137.05 16.3404 137.338 16.4929C137.63 16.642 137.862 16.8227 138.034 17.0348C138.206 17.2436 138.337 17.4408 138.427 17.6264H138.526V16.3636H140.301V24.1243C140.301 24.7772 140.145 25.3175 139.834 25.745C139.522 26.1726 139.096 26.4924 138.556 26.7045C138.016 26.9167 137.403 27.0227 136.716 27.0227ZM136.731 22.4787C137.113 22.4787 137.437 22.3859 137.706 22.2003C137.974 22.0147 138.178 21.7479 138.317 21.3999C138.456 21.0518 138.526 20.6342 138.526 20.147C138.526 19.6664 138.456 19.2455 138.317 18.8842C138.181 18.523 137.979 18.2429 137.711 18.044C137.446 17.8419 137.119 17.7408 136.731 17.7408C136.33 17.7408 135.996 17.8452 135.727 18.054C135.459 18.2628 135.256 18.5495 135.121 18.9141C134.985 19.2753 134.917 19.6863 134.917 20.147C134.917 20.6143 134.985 21.0237 135.121 21.375C135.26 21.723 135.464 21.9948 135.732 22.1903C136.004 22.3826 136.337 22.4787 136.731 22.4787Z" fill="black"/>
</svg>
